<?xml version="1.0" encoding="UTF-8" standalone="no"?>
<!DOCTYPE svg PUBLIC "-//W3C//DTD SVG 1.1//EN"
 "http://www.w3.org/Graphics/SVG/1.1/DTD/svg11.dtd">
<!-- Generated by graphviz version 14.1.2 (20260124.0452)
 -->
<!-- Title: main/sensors/SGP30.h Pages: 1 -->
<svg width="212pt" height="84pt"
 viewBox="0.00 0.00 212.00 84.00" xmlns="http://www.w3.org/2000/svg" xmlns:xlink="http://www.w3.org/1999/xlink">
<g id="graph0" class="graph" transform="scale(1 1) rotate(0) translate(4 80)">
<title>main/sensors/SGP30.h</title>
<!-- Node1 -->
<g id="Node000001" class="node">
<title>Node1</title>
<g id="a_Node000001"><a xlink:title="SGP30 air quality sensor interface.">
<polygon fill="#999999" stroke="#666666" points="148.25,-76 31,-76 31,-56 148.25,-56 148.25,-76"/>
<text xml:space="preserve" text-anchor="middle" x="89.62" y="-62.5" font-family="Helvetica,sans-Serif" font-size="10.00">main/sensors/SGP30.h</text>
</a>
</g>
</g>
<!-- Node2 -->
<g id="Node000002" class="node">
<title>Node2</title>
<g id="a_Node000002"><a xlink:href="main_2main_8c.html" target="_top" xlink:title="BLE Mesh vendor server with sensor integration and periodic publishing.">
<polygon fill="white" stroke="#666666" points="69.25,-20 0,-20 0,0 69.25,0 69.25,-20"/>
<text xml:space="preserve" text-anchor="middle" x="34.62" y="-6.5" font-family="Helvetica,sans-Serif" font-size="10.00">main/main.c</text>
</a>
</g>
</g>
<!-- Node1&#45;&gt;Node2 -->
<g id="edge1_Node000001_Node000002" class="edge">
<title>Node1&#45;&gt;Node2</title>
<g id="a_edge1_Node000001_Node000002"><a xlink:title=" ">
<path fill="none" stroke="#63b8ff" d="M71.87,-47.57C62.63,-38.5 51.71,-27.78 44.1,-20.3"/>
<polygon fill="#63b8ff" stroke="#63b8ff" points="69.38,-50.03 78.96,-54.53 74.28,-45.03 69.38,-50.03"/>
</a>
</g>
</g>
<!-- Node3 -->
<g id="Node000003" class="node">
<title>Node3</title>
<g id="a_Node000003"><a xlink:href="_s_g_p30_8c.html" target="_top" xlink:title=" ">
<polygon fill="white" stroke="#666666" points="204.25,-20 87,-20 87,0 204.25,0 204.25,-20"/>
<text xml:space="preserve" text-anchor="middle" x="145.62" y="-6.5" font-family="Helvetica,sans-Serif" font-size="10.00">main/sensors/SGP30.c</text>
</a>
</g>
</g>
<!-- Node1&#45;&gt;Node3 -->
<g id="edge2_Node000001_Node000003" class="edge">
<title>Node1&#45;&gt;Node3</title>
<g id="a_edge2_Node000001_Node000003"><a xlink:title=" ">
<path fill="none" stroke="#63b8ff" d="M107.41,-47.85C116.88,-38.72 128.15,-27.86 135.98,-20.3"/>
<polygon fill="#63b8ff" stroke="#63b8ff" points="105.24,-45.08 100.47,-54.54 110.1,-50.12 105.24,-45.08"/>
</a>
</g>
</g>
</g>
</svg>
