<?xml version="1.0" encoding="UTF-8" standalone="no"?>
<!DOCTYPE svg PUBLIC "-//W3C//DTD SVG 1.1//EN"
 "http://www.w3.org/Graphics/SVG/1.1/DTD/svg11.dtd">
<!-- Generated by graphviz version 14.1.2 (20260124.0452)
 -->
<!-- Title: main/sensors/aht20.h Pages: 1 -->
<svg width="206pt" height="84pt"
 viewBox="0.00 0.00 206.00 84.00" xmlns="http://www.w3.org/2000/svg" xmlns:xlink="http://www.w3.org/1999/xlink">
<g id="graph0" class="graph" transform="scale(1 1) rotate(0) translate(4 80)">
<title>main/sensors/aht20.h</title>
<!-- Node1 -->
<g id="Node000001" class="node">
<title>Node1</title>
<g id="a_Node000001"><a xlink:title="AHT20 temperature and humidity sensor interface.">
<polygon fill="#999999" stroke="#666666" points="143.5,-76 33.75,-76 33.75,-56 143.5,-56 143.5,-76"/>
<text xml:space="preserve" text-anchor="middle" x="88.62" y="-62.5" font-family="Helvetica,sans-Serif" font-size="10.00">main/sensors/aht20.h</text>
</a>
</g>
</g>
<!-- Node2 -->
<g id="Node000002" class="node">
<title>Node2</title>
<g id="a_Node000002"><a xlink:href="main_2main_8c.html" target="_top" xlink:title="BLE Mesh vendor server with sensor integration and periodic publishing.">
<polygon fill="white" stroke="#666666" points="69.25,-20 0,-20 0,0 69.25,0 69.25,-20"/>
<text xml:space="preserve" text-anchor="middle" x="34.62" y="-6.5" font-family="Helvetica,sans-Serif" font-size="10.00">main/main.c</text>
</a>
</g>
</g>
<!-- Node1&#45;&gt;Node2 -->
<g id="edge1_Node000001_Node000002" class="edge">
<title>Node1&#45;&gt;Node2</title>
<g id="a_edge1_Node000001_Node000002"><a xlink:title=" ">
<path fill="none" stroke="#63b8ff" d="M71.19,-47.57C62.12,-38.5 51.4,-27.78 43.92,-20.3"/>
<polygon fill="#63b8ff" stroke="#63b8ff" points="68.6,-49.93 78.15,-54.52 73.55,-44.98 68.6,-49.93"/>
</a>
</g>
</g>
<!-- Node3 -->
<g id="Node000003" class="node">
<title>Node3</title>
<g id="a_Node000003"><a xlink:href="aht20_8c.html" target="_top" xlink:title=" ">
<polygon fill="white" stroke="#666666" points="197.5,-20 87.75,-20 87.75,0 197.5,0 197.5,-20"/>
<text xml:space="preserve" text-anchor="middle" x="142.62" y="-6.5" font-family="Helvetica,sans-Serif" font-size="10.00">main/sensors/aht20.c</text>
</a>
</g>
</g>
<!-- Node1&#45;&gt;Node3 -->
<g id="edge2_Node000001_Node000003" class="edge">
<title>Node1&#45;&gt;Node3</title>
<g id="a_edge2_Node000001_Node000003"><a xlink:title=" ">
<path fill="none" stroke="#63b8ff" d="M106.06,-47.57C115.13,-38.5 125.85,-27.78 133.33,-20.3"/>
<polygon fill="#63b8ff" stroke="#63b8ff" points="103.7,-44.98 99.1,-54.52 108.65,-49.93 103.7,-44.98"/>
</a>
</g>
</g>
</g>
</svg>
