<?xml version="1.0" encoding="UTF-8" standalone="no"?>
<!DOCTYPE svg PUBLIC "-//W3C//DTD SVG 1.1//EN"
 "http://www.w3.org/Graphics/SVG/1.1/DTD/svg11.dtd">
<!-- Generated by graphviz version 14.1.2 (20260124.0452)
 -->
<!-- Title: main/sensors/aht20.c Pages: 1 -->
<svg width="199pt" height="140pt"
 viewBox="0.00 0.00 199.00 140.00" xmlns="http://www.w3.org/2000/svg" xmlns:xlink="http://www.w3.org/1999/xlink">

<svg id="main" version="1.1" xmlns="http://www.w3.org/2000/svg" xmlns:xlink="http://www.w3.org/1999/xlink" xml:space="preserve">

<style type="text/css"><![CDATA[
.node, .edge {opacity: 0.7;}
.node.selected, .edge.selected {opacity: 1;}
.edge:hover path { stroke: red; }
.edge:hover polygon { stroke: red; fill: red; }
]]></style>
<script type="application/ecmascript" xlink:href="svg.min.js"/>
<svg id="graph" class="graph">
<g id="graph0" class="graph" transform="scale(1 1) rotate(0) translate(4 136)">
<title>main/sensors/aht20.c</title>
<!-- Node1 -->
<g id="Node000001" class="node">
<title>Node1</title>
<g id="a_Node000001"><a xlink:title=" ">
<polygon fill="#999999" stroke="#666666" points="116.12,-132 6.38,-132 6.38,-112 116.12,-112 116.12,-132"/>
<text xml:space="preserve" text-anchor="middle" x="61.25" y="-118.5" font-family="Helvetica,sans-Serif" font-size="10.00">main/sensors/aht20.c</text>
</a>
</g>
</g>
<!-- Node2 -->
<g id="Node000002" class="node">
<title>Node2</title>
<g id="a_Node000002"><a xlink:href="config_8h.html" target="_top" xlink:title="Compile&#45;time configuration for different ESP32&#45;S3 sensor configurations.">
<polygon fill="white" stroke="#666666" points="50.5,-20 0,-20 0,0 50.5,0 50.5,-20"/>
<text xml:space="preserve" text-anchor="middle" x="25.25" y="-6.5" font-family="Helvetica,sans-Serif" font-size="10.00">config.h</text>
</a>
</g>
</g>
<!-- Node1&#45;&gt;Node2 -->
<g id="edge1_Node000001_Node000002" class="edge">
<title>Node1&#45;&gt;Node2</title>
<g id="a_edge1_Node000001_Node000002"><a xlink:title=" ">
<path fill="none" stroke="#63b8ff" d="M58.18,-111.62C52.36,-93.84 39.61,-54.88 31.79,-31"/>
<polygon fill="#63b8ff" stroke="#63b8ff" points="35.22,-30.21 28.78,-21.79 28.57,-32.39 35.22,-30.21"/>
</a>
</g>
</g>
<!-- Node3 -->
<g id="Node000003" class="node">
<title>Node3</title>
<g id="a_Node000003"><a xlink:href="aht20_8h.html" target="_top" xlink:title="AHT20 temperature and humidity sensor interface.">
<polygon fill="white" stroke="#666666" points="116.38,-76 68.12,-76 68.12,-56 116.38,-56 116.38,-76"/>
<text xml:space="preserve" text-anchor="middle" x="92.25" y="-62.5" font-family="Helvetica,sans-Serif" font-size="10.00">aht20.h</text>
</a>
</g>
</g>
<!-- Node1&#45;&gt;Node3 -->
<g id="edge2_Node000001_Node000003" class="edge">
<title>Node1&#45;&gt;Node3</title>
<g id="a_edge2_Node000001_Node000003"><a xlink:title=" ">
<path fill="none" stroke="#63b8ff" d="M66.65,-111.59C70.69,-104.55 76.37,-94.67 81.34,-86"/>
<polygon fill="#63b8ff" stroke="#63b8ff" points="84.22,-88.03 86.16,-77.61 78.14,-84.54 84.22,-88.03"/>
</a>
</g>
</g>
<!-- Node3&#45;&gt;Node2 -->
<g id="edge3_Node000003_Node000002" class="edge">
<title>Node3&#45;&gt;Node2</title>
<g id="a_edge3_Node000003_Node000002"><a xlink:title=" ">
<path fill="none" stroke="#63b8ff" d="M80.58,-55.59C70.97,-47.85 57.12,-36.69 45.68,-27.47"/>
<polygon fill="#63b8ff" stroke="#63b8ff" points="47.95,-24.8 37.97,-21.25 43.55,-30.25 47.95,-24.8"/>
</a>
</g>
</g>
<!-- Node4 -->
<g id="Node000004" class="node">
<title>Node4</title>
<g id="a_Node000004"><a xlink:title=" ">
<polygon fill="#e0e0e0" stroke="#999999" points="125.5,-20 69,-20 69,0 125.5,0 125.5,-20"/>
<text xml:space="preserve" text-anchor="middle" x="97.25" y="-6.5" font-family="Helvetica,sans-Serif" font-size="10.00">esp_err.h</text>
</a>
</g>
</g>
<!-- Node3&#45;&gt;Node4 -->
<g id="edge4_Node000003_Node000004" class="edge">
<title>Node3&#45;&gt;Node4</title>
<g id="a_edge4_Node000003_Node000004"><a xlink:title=" ">
<path fill="none" stroke="#63b8ff" d="M93.12,-55.59C93.73,-49.01 94.57,-39.96 95.33,-31.73"/>
<polygon fill="#63b8ff" stroke="#63b8ff" points="98.81,-32.09 96.25,-21.81 91.84,-31.44 98.81,-32.09"/>
</a>
</g>
</g>
<!-- Node5 -->
<g id="Node000005" class="node">
<title>Node5</title>
<g id="a_Node000005"><a xlink:title=" ">
<polygon fill="#e0e0e0" stroke="#999999" points="191.38,-20 143.12,-20 143.12,0 191.38,0 191.38,-20"/>
<text xml:space="preserve" text-anchor="middle" x="167.25" y="-6.5" font-family="Helvetica,sans-Serif" font-size="10.00">stdint.h</text>
</a>
</g>
</g>
<!-- Node3&#45;&gt;Node5 -->
<g id="edge5_Node000003_Node000005" class="edge">
<title>Node3&#45;&gt;Node5</title>
<g id="a_edge5_Node000003_Node000005"><a xlink:title=" ">
<path fill="none" stroke="#63b8ff" d="M105.31,-55.59C116.22,-47.74 132,-36.38 144.91,-27.09"/>
<polygon fill="#63b8ff" stroke="#63b8ff" points="146.79,-30.05 152.86,-21.36 142.7,-24.37 146.79,-30.05"/>
</a>
</g>
</g>
</g>
</svg>
</svg>

<style type='text/css'>
<![CDATA[
[data-mouse-over-selected='false'] { opacity: 0.7; }
[data-mouse-over-selected='true']  { opacity: 1.0; }
]]>
</style>
<script type="application/ecmascript"><![CDATA[
document.addEventListener('DOMContentLoaded', (event) => {
  highlightEdges();
  highlightAdjacentNodes();
});
]]></script>
</svg>
