<?xml version="1.0" encoding="UTF-8" standalone="no"?>
<!DOCTYPE svg PUBLIC "-//W3C//DTD SVG 1.1//EN"
 "http://www.w3.org/Graphics/SVG/1.1/DTD/svg11.dtd">
<!-- Generated by graphviz version 14.1.2 (20260124.0452)
 -->
<!-- Title: board_led_operation Pages: 1 -->
<svg width="642pt" height="47pt"
 viewBox="0.00 0.00 642.00 47.00" xmlns="http://www.w3.org/2000/svg" xmlns:xlink="http://www.w3.org/1999/xlink">
<g id="graph0" class="graph" transform="scale(1 1) rotate(0) translate(4 43)">
<title>board_led_operation</title>
<!-- Node1 -->
<g id="Node000001" class="node">
<title>Node1</title>
<g id="a_Node000001"><a xlink:title="Turn a board LED on or off.">
<polygon fill="#999999" stroke="#666666" points="633.5,-39 530.5,-39 530.5,-19 633.5,-19 633.5,-39"/>
<text xml:space="preserve" text-anchor="middle" x="582" y="-25.5" font-family="Helvetica,sans-Serif" font-size="10.00">board_led_operation</text>
</a>
</g>
</g>
<!-- Node2 -->
<g id="Node000002" class="node">
<title>Node2</title>
<g id="a_Node000002"><a xlink:href="main_2main_8c.html#a12fbcc517c402c44fa29f9dad1d1092b" target="_top" xlink:title="Initialize BLE Mesh stack and provisioning bearers.">
<polygon fill="white" stroke="#666666" points="170,-39 94,-39 94,-19 170,-19 170,-39"/>
<text xml:space="preserve" text-anchor="middle" x="132" y="-25.5" font-family="Helvetica,sans-Serif" font-size="10.00">ble_mesh_init</text>
</a>
</g>
</g>
<!-- Node1&#45;&gt;Node2 -->
<g id="edge1_Node000001_Node000002" class="edge">
<title>Node1&#45;&gt;Node2</title>
<g id="a_edge1_Node000001_Node000002"><a xlink:title=" ">
<path fill="none" stroke="#63b8ff" d="M518.65,-29C424.07,-29 247.22,-29 170.31,-29"/>
<polygon fill="#63b8ff" stroke="#63b8ff" points="518.53,-32.5 528.53,-29 518.53,-25.5 518.53,-32.5"/>
</a>
</g>
</g>
<!-- Node4 -->
<g id="Node000004" class="node">
<title>Node4</title>
<g id="a_Node000004"><a xlink:href="main_2main_8c.html#a07a0bb87283a1d544425b2c64bc45bda" target="_top" xlink:title="Handle provisioning completion and turn off status LED.">
<polygon fill="white" stroke="#666666" points="494.5,-20 414.75,-20 414.75,0 494.5,0 494.5,-20"/>
<text xml:space="preserve" text-anchor="middle" x="454.62" y="-6.5" font-family="Helvetica,sans-Serif" font-size="10.00">prov_complete</text>
</a>
</g>
</g>
<!-- Node1&#45;&gt;Node4 -->
<g id="edge3_Node000001_Node000004" class="edge">
<title>Node1&#45;&gt;Node4</title>
<g id="a_edge3_Node000001_Node000004"><a xlink:title=" ">
<path fill="none" stroke="#63b8ff" d="M518.83,-19.58C510.59,-18.33 502.34,-17.08 494.65,-15.91"/>
<polygon fill="#63b8ff" stroke="#63b8ff" points="518.1,-23.01 528.51,-21.05 519.15,-16.09 518.1,-23.01"/>
</a>
</g>
</g>
<!-- Node3 -->
<g id="Node000003" class="node">
<title>Node3</title>
<g id="a_Node000003"><a xlink:href="main_2main_8c.html#a630544a7f0a2cc40d8a7fefab7e2fe70" target="_top" xlink:title="Application entry point.">
<polygon fill="white" stroke="#666666" points="58,-39 0,-39 0,-19 58,-19 58,-39"/>
<text xml:space="preserve" text-anchor="middle" x="29" y="-25.5" font-family="Helvetica,sans-Serif" font-size="10.00">app_main</text>
</a>
</g>
</g>
<!-- Node2&#45;&gt;Node3 -->
<g id="edge2_Node000002_Node000003" class="edge">
<title>Node2&#45;&gt;Node3</title>
<g id="a_edge2_Node000002_Node000003"><a xlink:title=" ">
<path fill="none" stroke="#63b8ff" d="M82.23,-29C74.03,-29 65.78,-29 58.33,-29"/>
<polygon fill="#63b8ff" stroke="#63b8ff" points="82.16,-32.5 92.16,-29 82.16,-25.5 82.16,-32.5"/>
</a>
</g>
</g>
<!-- Node5 -->
<g id="Node000005" class="node">
<title>Node5</title>
<g id="a_Node000005"><a xlink:href="main_2main_8c.html#ae851df26bfca3d7270354d8f3f7a2a3a" target="_top" xlink:title="BLE Mesh provisioning callback for node events.">
<polygon fill="white" stroke="#666666" points="378.75,-20 206,-20 206,0 378.75,0 378.75,-20"/>
<text xml:space="preserve" text-anchor="middle" x="292.38" y="-6.5" font-family="Helvetica,sans-Serif" font-size="10.00">example_ble_mesh_provisioning_cb</text>
</a>
</g>
</g>
<!-- Node4&#45;&gt;Node5 -->
<g id="edge4_Node000004_Node000005" class="edge">
<title>Node4&#45;&gt;Node5</title>
<g id="a_edge4_Node000004_Node000005"><a xlink:title=" ">
<path fill="none" stroke="#63b8ff" d="M403.08,-10C395.36,-10 387.21,-10 378.99,-10"/>
<polygon fill="#63b8ff" stroke="#63b8ff" points="402.91,-13.5 412.91,-10 402.91,-6.5 402.91,-13.5"/>
</a>
</g>
</g>
<!-- Node5&#45;&gt;Node2 -->
<g id="edge5_Node000005_Node000002" class="edge">
<title>Node5&#45;&gt;Node2</title>
<g id="a_edge5_Node000005_Node000002"><a xlink:title=" ">
<path fill="none" stroke="#63b8ff" d="M194.47,-21.63C186.02,-22.64 177.86,-23.62 170.39,-24.51"/>
<polygon fill="#63b8ff" stroke="#63b8ff" points="194.68,-25.13 204.2,-20.46 193.85,-18.17 194.68,-25.13"/>
</a>
</g>
</g>
</g>
</svg>
