<?xml version="1.0" encoding="UTF-8" standalone="no"?>
<!DOCTYPE svg PUBLIC "-//W3C//DTD SVG 1.1//EN"
 "http://www.w3.org/Graphics/SVG/1.1/DTD/svg11.dtd">
<!-- Generated by graphviz version 14.1.2 (20260124.0452)
 -->
<!-- Title: main/board.c Pages: 1 -->
<svg width="234pt" height="140pt"
 viewBox="0.00 0.00 234.00 140.00" xmlns="http://www.w3.org/2000/svg" xmlns:xlink="http://www.w3.org/1999/xlink">

<svg id="main" version="1.1" xmlns="http://www.w3.org/2000/svg" xmlns:xlink="http://www.w3.org/1999/xlink" xml:space="preserve">

<style type="text/css"><![CDATA[
.node, .edge {opacity: 0.7;}
.node.selected, .edge.selected {opacity: 1;}
.edge:hover path { stroke: red; }
.edge:hover polygon { stroke: red; fill: red; }
]]></style>
<script type="application/ecmascript" xlink:href="svg.min.js"/>
<svg id="graph" class="graph">
<g id="graph0" class="graph" transform="scale(1 1) rotate(0) translate(4 136)">
<title>main/board.c</title>
<!-- Node1 -->
<g id="Node000001" class="node">
<title>Node1</title>
<g id="a_Node000001"><a xlink:title=" ">
<polygon fill="#999999" stroke="#666666" points="137.75,-132 65.5,-132 65.5,-112 137.75,-112 137.75,-132"/>
<text xml:space="preserve" text-anchor="middle" x="101.62" y="-118.5" font-family="Helvetica,sans-Serif" font-size="10.00">main/board.c</text>
</a>
</g>
</g>
<!-- Node2 -->
<g id="Node000002" class="node">
<title>Node2</title>
<g id="a_Node000002"><a xlink:title=" ">
<polygon fill="#e0e0e0" stroke="#999999" points="45.25,-76 0,-76 0,-56 45.25,-56 45.25,-76"/>
<text xml:space="preserve" text-anchor="middle" x="22.62" y="-62.5" font-family="Helvetica,sans-Serif" font-size="10.00">stdio.h</text>
</a>
</g>
</g>
<!-- Node1&#45;&gt;Node2 -->
<g id="edge1_Node000001_Node000002" class="edge">
<title>Node1&#45;&gt;Node2</title>
<g id="a_edge1_Node000001_Node000002"><a xlink:title=" ">
<path fill="none" stroke="#63b8ff" d="M87.86,-111.59C76.27,-103.67 59.43,-92.16 45.76,-82.82"/>
<polygon fill="#63b8ff" stroke="#63b8ff" points="47.97,-80.09 37.74,-77.33 44.02,-85.87 47.97,-80.09"/>
</a>
</g>
</g>
<!-- Node3 -->
<g id="Node000003" class="node">
<title>Node3</title>
<g id="a_Node000003"><a xlink:title=" ">
<polygon fill="#e0e0e0" stroke="#999999" points="172.25,-20 103,-20 103,0 172.25,0 172.25,-20"/>
<text xml:space="preserve" text-anchor="middle" x="137.62" y="-6.5" font-family="Helvetica,sans-Serif" font-size="10.00">driver/gpio.h</text>
</a>
</g>
</g>
<!-- Node1&#45;&gt;Node3 -->
<g id="edge2_Node000001_Node000003" class="edge">
<title>Node1&#45;&gt;Node3</title>
<g id="a_edge2_Node000001_Node000003"><a xlink:title=" ">
<path fill="none" stroke="#63b8ff" d="M97.47,-111.79C92.25,-98.84 84.86,-74.73 92.62,-56 97.27,-44.79 106.21,-34.91 114.91,-27.29"/>
<polygon fill="#63b8ff" stroke="#63b8ff" points="116.93,-30.16 122.52,-21.15 112.54,-24.71 116.93,-30.16"/>
</a>
</g>
</g>
<!-- Node4 -->
<g id="Node000004" class="node">
<title>Node4</title>
<g id="a_Node000004"><a xlink:title=" ">
<polygon fill="#e0e0e0" stroke="#999999" points="159.62,-76 101.62,-76 101.62,-56 159.62,-56 159.62,-76"/>
<text xml:space="preserve" text-anchor="middle" x="130.62" y="-62.5" font-family="Helvetica,sans-Serif" font-size="10.00">esp_log.h</text>
</a>
</g>
</g>
<!-- Node1&#45;&gt;Node4 -->
<g id="edge3_Node000001_Node000004" class="edge">
<title>Node1&#45;&gt;Node4</title>
<g id="a_edge3_Node000001_Node000004"><a xlink:title=" ">
<path fill="none" stroke="#63b8ff" d="M106.68,-111.59C110.42,-104.63 115.65,-94.89 120.27,-86.29"/>
<polygon fill="#63b8ff" stroke="#63b8ff" points="123.27,-88.1 124.92,-77.63 117.1,-84.79 123.27,-88.1"/>
</a>
</g>
</g>
<!-- Node5 -->
<g id="Node000005" class="node">
<title>Node5</title>
<g id="a_Node000005"><a xlink:href="board_8h.html" target="_top" xlink:title="Board&#45;specific LED and GPIO helpers.">
<polygon fill="white" stroke="#666666" points="225.75,-76 177.5,-76 177.5,-56 225.75,-56 225.75,-76"/>
<text xml:space="preserve" text-anchor="middle" x="201.62" y="-62.5" font-family="Helvetica,sans-Serif" font-size="10.00">board.h</text>
</a>
</g>
</g>
<!-- Node1&#45;&gt;Node5 -->
<g id="edge4_Node000001_Node000005" class="edge">
<title>Node1&#45;&gt;Node5</title>
<g id="a_edge4_Node000001_Node000005"><a xlink:title=" ">
<path fill="none" stroke="#63b8ff" d="M119.04,-111.59C134.29,-103.36 156.7,-91.26 174.33,-81.74"/>
<polygon fill="#63b8ff" stroke="#63b8ff" points="175.6,-85.03 182.74,-77.2 172.28,-78.87 175.6,-85.03"/>
</a>
</g>
</g>
<!-- Node5&#45;&gt;Node3 -->
<g id="edge5_Node000005_Node000003" class="edge">
<title>Node5&#45;&gt;Node3</title>
<g id="a_edge5_Node000005_Node000003"><a xlink:title=" ">
<path fill="none" stroke="#63b8ff" d="M190.48,-55.59C181.3,-47.85 168.07,-36.69 157.14,-27.47"/>
<polygon fill="#63b8ff" stroke="#63b8ff" points="159.7,-25.05 149.8,-21.27 155.19,-30.4 159.7,-25.05"/>
</a>
</g>
</g>
</g>
</svg>
</svg>

<style type='text/css'>
<![CDATA[
[data-mouse-over-selected='false'] { opacity: 0.7; }
[data-mouse-over-selected='true']  { opacity: 1.0; }
]]>
</style>
<script type="application/ecmascript"><![CDATA[
document.addEventListener('DOMContentLoaded', (event) => {
  highlightEdges();
  highlightAdjacentNodes();
});
]]></script>
</svg>
