<?xml version="1.0" encoding="UTF-8" standalone="no"?>
<!DOCTYPE svg PUBLIC "-//W3C//DTD SVG 1.1//EN"
 "http://www.w3.org/Graphics/SVG/1.1/DTD/svg11.dtd">
<!-- Generated by graphviz version 14.1.2 (20260124.0452)
 -->
<!-- Title: main/board.h Pages: 1 -->
<svg width="168pt" height="84pt"
 viewBox="0.00 0.00 168.00 84.00" xmlns="http://www.w3.org/2000/svg" xmlns:xlink="http://www.w3.org/1999/xlink">
<g id="graph0" class="graph" transform="scale(1 1) rotate(0) translate(4 80)">
<title>main/board.h</title>
<!-- Node1 -->
<g id="Node000001" class="node">
<title>Node1</title>
<g id="a_Node000001"><a xlink:title="Board&#45;specific LED and GPIO helpers.">
<polygon fill="#999999" stroke="#666666" points="116.25,-76 44,-76 44,-56 116.25,-56 116.25,-76"/>
<text xml:space="preserve" text-anchor="middle" x="80.12" y="-62.5" font-family="Helvetica,sans-Serif" font-size="10.00">main/board.h</text>
</a>
</g>
</g>
<!-- Node2 -->
<g id="Node000002" class="node">
<title>Node2</title>
<g id="a_Node000002"><a xlink:href="board_8c.html" target="_top" xlink:title=" ">
<polygon fill="white" stroke="#666666" points="72.25,-20 0,-20 0,0 72.25,0 72.25,-20"/>
<text xml:space="preserve" text-anchor="middle" x="36.12" y="-6.5" font-family="Helvetica,sans-Serif" font-size="10.00">main/board.c</text>
</a>
</g>
</g>
<!-- Node1&#45;&gt;Node2 -->
<g id="edge1_Node000001_Node000002" class="edge">
<title>Node1&#45;&gt;Node2</title>
<g id="a_edge1_Node000001_Node000002"><a xlink:title=" ">
<path fill="none" stroke="#63b8ff" d="M65.23,-46.72C57.99,-37.84 49.61,-27.55 43.7,-20.3"/>
<polygon fill="#63b8ff" stroke="#63b8ff" points="62.47,-48.88 71.5,-54.42 67.9,-44.46 62.47,-48.88"/>
</a>
</g>
</g>
<!-- Node3 -->
<g id="Node000003" class="node">
<title>Node3</title>
<g id="a_Node000003"><a xlink:href="main_2main_8c.html" target="_top" xlink:title="BLE Mesh vendor server with sensor integration and periodic publishing.">
<polygon fill="white" stroke="#666666" points="159.75,-20 90.5,-20 90.5,0 159.75,0 159.75,-20"/>
<text xml:space="preserve" text-anchor="middle" x="125.12" y="-6.5" font-family="Helvetica,sans-Serif" font-size="10.00">main/main.c</text>
</a>
</g>
</g>
<!-- Node1&#45;&gt;Node3 -->
<g id="edge2_Node000001_Node000003" class="edge">
<title>Node1&#45;&gt;Node3</title>
<g id="a_edge2_Node000001_Node000003"><a xlink:title=" ">
<path fill="none" stroke="#63b8ff" d="M95.12,-47C102.58,-38.06 111.27,-27.62 117.38,-20.3"/>
<polygon fill="#63b8ff" stroke="#63b8ff" points="92.65,-44.51 88.93,-54.43 98.02,-48.99 92.65,-44.51"/>
</a>
</g>
</g>
</g>
</svg>
