<?xml version="1.0" encoding="UTF-8" standalone="no"?>
<!DOCTYPE svg PUBLIC "-//W3C//DTD SVG 1.1//EN"
 "http://www.w3.org/Graphics/SVG/1.1/DTD/svg11.dtd">
<!-- Generated by graphviz version 14.1.2 (20260124.0452)
 -->
<!-- Title: main/config.h Pages: 1 -->
<svg width="492pt" height="140pt"
 viewBox="0.00 0.00 492.00 140.00" xmlns="http://www.w3.org/2000/svg" xmlns:xlink="http://www.w3.org/1999/xlink">

<svg id="main" version="1.1" xmlns="http://www.w3.org/2000/svg" xmlns:xlink="http://www.w3.org/1999/xlink" xml:space="preserve">

<style type="text/css"><![CDATA[
.node, .edge {opacity: 0.7;}
.node.selected, .edge.selected {opacity: 1;}
.edge:hover path { stroke: red; }
.edge:hover polygon { stroke: red; fill: red; }
]]></style>
<script type="application/ecmascript" xlink:href="svg.min.js"/>
<svg id="graph" class="graph">
<g id="graph0" class="graph" transform="scale(1 1) rotate(0) translate(4 136)">
<title>main/config.h</title>
<!-- Node1 -->
<g id="Node000001" class="node">
<title>Node1</title>
<g id="a_Node000001"><a xlink:title="Compile&#45;time configuration for different ESP32&#45;S3 sensor configurations.">
<polygon fill="#999999" stroke="#666666" points="290.14,-132 215.64,-132 215.64,-112 290.14,-112 290.14,-132"/>
<text xml:space="preserve" text-anchor="middle" x="252.89" y="-118.5" font-family="Helvetica,sans-Serif" font-size="10.00">main/config.h</text>
</a>
</g>
</g>
<!-- Node2 -->
<g id="Node000002" class="node">
<title>Node2</title>
<g id="a_Node000002"><a xlink:href="main_2main_8c.html" target="_top" xlink:title="BLE Mesh vendor server with sensor integration and periodic publishing.">
<polygon fill="white" stroke="#666666" points="103.52,-20 34.27,-20 34.27,0 103.52,0 103.52,-20"/>
<text xml:space="preserve" text-anchor="middle" x="68.89" y="-6.5" font-family="Helvetica,sans-Serif" font-size="10.00">main/main.c</text>
</a>
</g>
</g>
<!-- Node1&#45;&gt;Node2 -->
<g id="edge1_Node000001_Node000002" class="edge">
<title>Node1&#45;&gt;Node2</title>
<g id="a_edge1_Node000001_Node000002"><a xlink:title=" ">
<path fill="none" stroke="#63b8ff" d="M204.09,-119.3C139.2,-115.9 29.76,-105.79 4.89,-76 -12.67,-54.97 22.73,-32.68 47.53,-20.44"/>
<polygon fill="#63b8ff" stroke="#63b8ff" points="203.6,-122.78 213.76,-119.77 203.94,-115.79 203.6,-122.78"/>
</a>
</g>
</g>
<!-- Node3 -->
<g id="Node000003" class="node">
<title>Node3</title>
<g id="a_Node000003"><a xlink:href="_s_g_p30_8c.html" target="_top" xlink:title=" ">
<polygon fill="white" stroke="#666666" points="483.52,-76 366.27,-76 366.27,-56 483.52,-56 483.52,-76"/>
<text xml:space="preserve" text-anchor="middle" x="424.89" y="-62.5" font-family="Helvetica,sans-Serif" font-size="10.00">main/sensors/SGP30.c</text>
</a>
</g>
</g>
<!-- Node1&#45;&gt;Node3 -->
<g id="edge2_Node000001_Node000003" class="edge">
<title>Node1&#45;&gt;Node3</title>
<g id="a_edge2_Node000001_Node000003"><a xlink:title=" ">
<path fill="none" stroke="#63b8ff" d="M293.73,-108.18C324.74,-98.44 366.67,-85.28 394.7,-76.48"/>
<polygon fill="#63b8ff" stroke="#63b8ff" points="292.79,-104.81 284.29,-111.14 294.88,-111.48 292.79,-104.81"/>
</a>
</g>
</g>
<!-- Node4 -->
<g id="Node000004" class="node">
<title>Node4</title>
<g id="a_Node000004"><a xlink:href="aht20_8c.html" target="_top" xlink:title=" ">
<polygon fill="white" stroke="#666666" points="242.77,-20 133.02,-20 133.02,0 242.77,0 242.77,-20"/>
<text xml:space="preserve" text-anchor="middle" x="187.89" y="-6.5" font-family="Helvetica,sans-Serif" font-size="10.00">main/sensors/aht20.c</text>
</a>
</g>
</g>
<!-- Node1&#45;&gt;Node4 -->
<g id="edge3_Node000001_Node000004" class="edge">
<title>Node1&#45;&gt;Node4</title>
<g id="a_edge3_Node000001_Node000004"><a xlink:title=" ">
<path fill="none" stroke="#63b8ff" d="M269.54,-103.35C280.17,-89.85 290.33,-71.06 280.89,-56 269.65,-38.07 249.01,-27.11 230.03,-20.5"/>
<polygon fill="#63b8ff" stroke="#63b8ff" points="267.18,-100.72 263.33,-110.59 272.49,-105.28 267.18,-100.72"/>
</a>
</g>
</g>
<!-- Node5 -->
<g id="Node000005" class="node">
<title>Node5</title>
<g id="a_Node000005"><a xlink:href="aht20_8h.html" target="_top" xlink:title="AHT20 temperature and humidity sensor interface.">
<polygon fill="white" stroke="#666666" points="123.77,-76 14.02,-76 14.02,-56 123.77,-56 123.77,-76"/>
<text xml:space="preserve" text-anchor="middle" x="68.89" y="-62.5" font-family="Helvetica,sans-Serif" font-size="10.00">main/sensors/aht20.h</text>
</a>
</g>
</g>
<!-- Node1&#45;&gt;Node5 -->
<g id="edge4_Node000001_Node000005" class="edge">
<title>Node1&#45;&gt;Node5</title>
<g id="a_edge4_Node000001_Node000005"><a xlink:title=" ">
<path fill="none" stroke="#63b8ff" d="M210.07,-108.43C176.82,-98.67 131.43,-85.35 101.19,-76.48"/>
<polygon fill="#63b8ff" stroke="#63b8ff" points="208.81,-111.71 219.39,-111.17 210.78,-104.99 208.81,-111.71"/>
</a>
</g>
</g>
<!-- Node6 -->
<g id="Node000006" class="node">
<title>Node6</title>
<g id="a_Node000006"><a xlink:href="max30101_8c.html" target="_top" xlink:title=" ">
<polygon fill="white" stroke="#666666" points="397.27,-20 266.52,-20 266.52,0 397.27,0 397.27,-20"/>
<text xml:space="preserve" text-anchor="middle" x="331.89" y="-6.5" font-family="Helvetica,sans-Serif" font-size="10.00">main/sensors/max30101.c</text>
</a>
</g>
</g>
<!-- Node1&#45;&gt;Node6 -->
<g id="edge7_Node000001_Node000006" class="edge">
<title>Node1&#45;&gt;Node6</title>
<g id="a_edge7_Node000001_Node000006"><a xlink:title=" ">
<path fill="none" stroke="#63b8ff" d="M271.87,-103.89C280.13,-95.9 289.57,-85.96 296.89,-76 310.41,-57.62 322.05,-33.38 327.89,-20.31"/>
<polygon fill="#63b8ff" stroke="#63b8ff" points="269.53,-101.29 264.64,-110.68 274.32,-106.39 269.53,-101.29"/>
</a>
</g>
</g>
<!-- Node7 -->
<g id="Node000007" class="node">
<title>Node7</title>
<g id="a_Node000007"><a xlink:href="max30101_8h.html" target="_top" xlink:title="MAX30101 heart rate and SpO2 sensor interface.">
<polygon fill="white" stroke="#666666" points="272.27,-76 141.52,-76 141.52,-56 272.27,-56 272.27,-76"/>
<text xml:space="preserve" text-anchor="middle" x="206.89" y="-62.5" font-family="Helvetica,sans-Serif" font-size="10.00">main/sensors/max30101.h</text>
</a>
</g>
</g>
<!-- Node1&#45;&gt;Node7 -->
<g id="edge8_Node000001_Node000007" class="edge">
<title>Node1&#45;&gt;Node7</title>
<g id="a_edge8_Node000001_Node000007"><a xlink:title=" ">
<path fill="none" stroke="#63b8ff" d="M237.56,-103C229.94,-94.06 221.05,-83.62 214.81,-76.3"/>
<polygon fill="#63b8ff" stroke="#63b8ff" points="234.75,-105.1 243.9,-110.44 240.08,-100.56 234.75,-105.1"/>
</a>
</g>
</g>
<!-- Node5&#45;&gt;Node2 -->
<g id="edge5_Node000005_Node000002" class="edge">
<title>Node5&#45;&gt;Node2</title>
<g id="a_edge5_Node000005_Node000002"><a xlink:title=" ">
<path fill="none" stroke="#63b8ff" d="M68.89,-44.13C68.89,-35.9 68.89,-26.85 68.89,-20.3"/>
<polygon fill="#63b8ff" stroke="#63b8ff" points="65.39,-44.08 68.89,-54.08 72.39,-44.08 65.39,-44.08"/>
</a>
</g>
</g>
<!-- Node5&#45;&gt;Node4 -->
<g id="edge6_Node000005_Node000004" class="edge">
<title>Node5&#45;&gt;Node4</title>
<g id="a_edge6_Node000005_Node000004"><a xlink:title=" ">
<path fill="none" stroke="#63b8ff" d="M100.01,-50.88C121.12,-41.3 148.46,-28.89 167,-20.48"/>
<polygon fill="#63b8ff" stroke="#63b8ff" points="98.66,-47.65 91,-54.97 101.55,-54.02 98.66,-47.65"/>
</a>
</g>
</g>
<!-- Node7&#45;&gt;Node2 -->
<g id="edge9_Node000007_Node000002" class="edge">
<title>Node7&#45;&gt;Node2</title>
<g id="a_edge9_Node000007_Node000002"><a xlink:title=" ">
<path fill="none" stroke="#63b8ff" d="M172.14,-51.4C147.48,-41.75 115.01,-29.05 93.12,-20.48"/>
<polygon fill="#63b8ff" stroke="#63b8ff" points="170.86,-54.66 181.44,-55.04 173.41,-48.14 170.86,-54.66"/>
</a>
</g>
</g>
<!-- Node7&#45;&gt;Node6 -->
<g id="edge10_Node000007_Node000006" class="edge">
<title>Node7&#45;&gt;Node6</title>
<g id="a_edge10_Node000007_Node000006"><a xlink:title=" ">
<path fill="none" stroke="#63b8ff" d="M238.97,-51.14C261.23,-41.52 290.3,-28.97 309.95,-20.48"/>
<polygon fill="#63b8ff" stroke="#63b8ff" points="237.84,-47.81 230.05,-54.99 240.62,-54.24 237.84,-47.81"/>
</a>
</g>
</g>
</g>
</svg>
</svg>

<style type='text/css'>
<![CDATA[
[data-mouse-over-selected='false'] { opacity: 0.7; }
[data-mouse-over-selected='true']  { opacity: 1.0; }
]]>
</style>
<script type="application/ecmascript"><![CDATA[
document.addEventListener('DOMContentLoaded', (event) => {
  highlightEdges();
  highlightAdjacentNodes();
});
]]></script>
</svg>
