<?xml version="1.0" encoding="UTF-8" standalone="no"?>
<!DOCTYPE svg PUBLIC "-//W3C//DTD SVG 1.1//EN"
 "http://www.w3.org/Graphics/SVG/1.1/DTD/svg11.dtd">
<!-- Generated by graphviz version 14.1.2 (20260124.0452)
 -->
<!-- Title: example_ble_mesh_provisioning_cb Pages: 1 -->
<svg width="467pt" height="180pt"
 viewBox="0.00 0.00 467.00 180.00" xmlns="http://www.w3.org/2000/svg" xmlns:xlink="http://www.w3.org/1999/xlink">

<svg id="main" version="1.1" xmlns="http://www.w3.org/2000/svg" xmlns:xlink="http://www.w3.org/1999/xlink" xml:space="preserve">

<style type="text/css"><![CDATA[
.node, .edge {opacity: 0.7;}
.node.selected, .edge.selected {opacity: 1;}
.edge:hover path { stroke: red; }
.edge:hover polygon { stroke: red; fill: red; }
]]></style>
<script type="application/ecmascript" xlink:href="svg.min.js"/>
<svg id="graph" class="graph">
<g id="graph0" class="graph" transform="scale(1 1) rotate(0) translate(4 176)">
<title>example_ble_mesh_provisioning_cb</title>
<!-- Node1 -->
<g id="Node000001" class="node">
<title>Node1</title>
<g id="a_Node000001"><a xlink:title="BLE Mesh provisioning callback for node events.">
<polygon fill="#999999" stroke="#666666" points="172.75,-115 0,-115 0,-95 172.75,-95 172.75,-115"/>
<text xml:space="preserve" text-anchor="middle" x="86.38" y="-101.5" font-family="Helvetica,sans-Serif" font-size="10.00">example_ble_mesh_provisioning_cb</text>
</a>
</g>
</g>
<!-- Node2 -->
<g id="Node000002" class="node">
<title>Node2</title>
<g id="a_Node000002"><a xlink:href="main_2main_8c.html#a07a0bb87283a1d544425b2c64bc45bda" target="_top" xlink:title="Handle provisioning completion and turn off status LED.">
<polygon fill="white" stroke="#666666" points="288.5,-153 208.75,-153 208.75,-133 288.5,-133 288.5,-153"/>
<text xml:space="preserve" text-anchor="middle" x="248.62" y="-139.5" font-family="Helvetica,sans-Serif" font-size="10.00">prov_complete</text>
</a>
</g>
</g>
<!-- Node1&#45;&gt;Node2 -->
<g id="edge1_Node000001_Node000002" class="edge">
<title>Node1&#45;&gt;Node2</title>
<g id="a_edge1_Node000001_Node000002"><a xlink:title=" ">
<path fill="none" stroke="#63b8ff" d="M131.59,-115.48C152.01,-120.33 176.35,-126.1 197.45,-131.1"/>
<polygon fill="#63b8ff" stroke="#63b8ff" points="196.46,-134.46 207,-133.37 198.08,-127.65 196.46,-134.46"/>
</a>
</g>
</g>
<!-- Node4 -->
<g id="Node000004" class="node">
<title>Node4</title>
<g id="a_Node000004"><a xlink:href="main_2main_8c.html#a51c85c785ff418595fca6cb6bdeadaec" target="_top" xlink:title="Sensor data publication callback.">
<polygon fill="white" stroke="#666666" points="285.88,-96 211.38,-96 211.38,-76 285.88,-76 285.88,-96"/>
<text xml:space="preserve" text-anchor="middle" x="248.62" y="-82.5" font-family="Helvetica,sans-Serif" font-size="10.00">pub_timer_cb</text>
</a>
</g>
</g>
<!-- Node1&#45;&gt;Node4 -->
<g id="edge3_Node000001_Node000004" class="edge">
<title>Node1&#45;&gt;Node4</title>
<g id="a_edge3_Node000001_Node000004"><a xlink:title=" ">
<path fill="none" stroke="#63b8ff" d="M173.13,-94.83C182.34,-93.74 191.45,-92.66 199.97,-91.65"/>
<polygon fill="#63b8ff" stroke="#63b8ff" points="200.15,-95.15 209.67,-90.5 199.33,-88.2 200.15,-95.15"/>
</a>
</g>
</g>
<!-- Node3 -->
<g id="Node000003" class="node">
<title>Node3</title>
<g id="a_Node000003"><a xlink:href="board_8c.html#a1e260d8ae55d49d43ddf309ad368df26" target="_top" xlink:title="Set LED GPIO level and track previous state.">
<polygon fill="white" stroke="#666666" points="443.25,-172 340.25,-172 340.25,-152 443.25,-152 443.25,-172"/>
<text xml:space="preserve" text-anchor="middle" x="391.75" y="-158.5" font-family="Helvetica,sans-Serif" font-size="10.00">board_led_operation</text>
</a>
</g>
</g>
<!-- Node2&#45;&gt;Node3 -->
<g id="edge2_Node000002_Node000003" class="edge">
<title>Node2&#45;&gt;Node3</title>
<g id="a_edge2_Node000002_Node000003"><a xlink:title=" ">
<path fill="none" stroke="#63b8ff" d="M288.94,-148.29C301.23,-149.95 315.12,-151.82 328.59,-153.63"/>
<polygon fill="#63b8ff" stroke="#63b8ff" points="327.88,-157.07 338.26,-154.93 328.82,-150.13 327.88,-157.07"/>
</a>
</g>
</g>
<!-- Node5 -->
<g id="Node000005" class="node">
<title>Node5</title>
<g id="a_Node000005"><a xlink:href="aht20_8h.html#ac6edc10e16108823ec8740e5e65558eb" target="_top" xlink:title="Stub read when AHT20 is disabled.">
<polygon fill="white" stroke="#666666" points="436.88,-134 346.62,-134 346.62,-114 436.88,-114 436.88,-134"/>
<text xml:space="preserve" text-anchor="middle" x="391.75" y="-120.5" font-family="Helvetica,sans-Serif" font-size="10.00">aht20_read_x100</text>
</a>
</g>
</g>
<!-- Node4&#45;&gt;Node5 -->
<g id="edge4_Node000004_Node000005" class="edge">
<title>Node4&#45;&gt;Node5</title>
<g id="a_edge4_Node000004_Node000005"><a xlink:title=" ">
<path fill="none" stroke="#63b8ff" d="M286.34,-95.88C303.11,-100.4 323.23,-105.82 341.31,-110.69"/>
<polygon fill="#63b8ff" stroke="#63b8ff" points="340.22,-114.02 350.79,-113.24 342.04,-107.26 340.22,-114.02"/>
</a>
</g>
</g>
<!-- Node6 -->
<g id="Node000006" class="node">
<title>Node6</title>
<g id="a_Node000006"><a xlink:href="max30101_8h.html#a098f481c6ba110c617a896ec43f02cd4" target="_top" xlink:title="Stub heart rate getter when MAX30101 is disabled.">
<polygon fill="white" stroke="#666666" points="456,-96 327.5,-96 327.5,-76 456,-76 456,-96"/>
<text xml:space="preserve" text-anchor="middle" x="391.75" y="-82.5" font-family="Helvetica,sans-Serif" font-size="10.00">max30101_get_heart_rate</text>
</a>
</g>
</g>
<!-- Node4&#45;&gt;Node6 -->
<g id="edge5_Node000004_Node000006" class="edge">
<title>Node4&#45;&gt;Node6</title>
<g id="a_edge5_Node000004_Node000006"><a xlink:title=" ">
<path fill="none" stroke="#63b8ff" d="M286.34,-86C295.41,-86 305.47,-86 315.66,-86"/>
<polygon fill="#63b8ff" stroke="#63b8ff" points="315.65,-89.5 325.65,-86 315.65,-82.5 315.65,-89.5"/>
</a>
</g>
</g>
<!-- Node7 -->
<g id="Node000007" class="node">
<title>Node7</title>
<g id="a_Node000007"><a xlink:href="max30101_8h.html#ae8038b9b65d4df2dc274ff534c83a974" target="_top" xlink:title="Stub raw value getter when MAX30101 is disabled.">
<polygon fill="white" stroke="#666666" points="459,-58 324.5,-58 324.5,-38 459,-38 459,-58"/>
<text xml:space="preserve" text-anchor="middle" x="391.75" y="-44.5" font-family="Helvetica,sans-Serif" font-size="10.00">max30101_get_raw_values</text>
</a>
</g>
</g>
<!-- Node4&#45;&gt;Node7 -->
<g id="edge6_Node000004_Node000007" class="edge">
<title>Node4&#45;&gt;Node7</title>
<g id="a_edge6_Node000004_Node000007"><a xlink:title=" ">
<path fill="none" stroke="#63b8ff" d="M286.34,-76.12C303.11,-71.6 323.23,-66.18 341.31,-61.31"/>
<polygon fill="#63b8ff" stroke="#63b8ff" points="342.04,-64.74 350.79,-58.76 340.22,-57.98 342.04,-64.74"/>
</a>
</g>
</g>
<!-- Node8 -->
<g id="Node000008" class="node">
<title>Node8</title>
<g id="a_Node000008"><a xlink:href="max30101_8h.html#a654f1aab2d5deafacaa1b6c63ec94628" target="_top" xlink:title="Stub SpO2 getter when MAX30101 is disabled.">
<polygon fill="white" stroke="#666666" points="444.75,-20 338.75,-20 338.75,0 444.75,0 444.75,-20"/>
<text xml:space="preserve" text-anchor="middle" x="391.75" y="-6.5" font-family="Helvetica,sans-Serif" font-size="10.00">max30101_get_spo2</text>
</a>
</g>
</g>
<!-- Node4&#45;&gt;Node8 -->
<g id="edge7_Node000004_Node000008" class="edge">
<title>Node4&#45;&gt;Node8</title>
<g id="a_edge7_Node000004_Node000008"><a xlink:title=" ">
<path fill="none" stroke="#63b8ff" d="M260.41,-75.69C274.22,-63 299.38,-41.6 324.5,-29 327.92,-27.28 331.52,-25.7 335.2,-24.24"/>
<polygon fill="#63b8ff" stroke="#63b8ff" points="336.05,-27.66 344.28,-20.98 333.68,-21.07 336.05,-27.66"/>
</a>
</g>
</g>
</g>
</svg>
</svg>

<style type='text/css'>
<![CDATA[
[data-mouse-over-selected='false'] { opacity: 0.7; }
[data-mouse-over-selected='true']  { opacity: 1.0; }
]]>
</style>
<script type="application/ecmascript"><![CDATA[
document.addEventListener('DOMContentLoaded', (event) => {
  highlightEdges();
  highlightAdjacentNodes();
});
]]></script>
</svg>
