<?xml version="1.0" encoding="UTF-8" standalone="no"?>
<!DOCTYPE svg PUBLIC "-//W3C//DTD SVG 1.1//EN"
 "http://www.w3.org/Graphics/SVG/1.1/DTD/svg11.dtd">
<!-- Generated by graphviz version 14.1.2 (20260124.0452)
 -->
<!-- Title: app_main Pages: 1 -->
<svg width="727pt" height="282pt"
 viewBox="0.00 0.00 727.00 282.00" xmlns="http://www.w3.org/2000/svg" xmlns:xlink="http://www.w3.org/1999/xlink">
<g id="graph0" class="graph" transform="scale(1 1) rotate(0) translate(4 277.68)">
<title>app_main</title>
<!-- Node1 -->
<g id="Node000001" class="node">
<title>Node1</title>
<g id="a_Node000001"><a xlink:title="Application entry point.">
<polygon fill="#999999" stroke="#666666" points="58,-115 0,-115 0,-95 58,-95 58,-115"/>
<text xml:space="preserve" text-anchor="middle" x="29" y="-101.5" font-family="Helvetica,sans-Serif" font-size="10.00">app_main</text>
</a>
</g>
</g>
<!-- Node2 -->
<g id="Node000002" class="node">
<title>Node2</title>
<g id="a_Node000002"><a xlink:href="aht20_8h.html#afcc6bc78780cb4b87c89be2e5884f6f1" target="_top" xlink:title="Stub initialization when AHT20 is disabled.">
<polygon fill="white" stroke="#666666" points="188,-210 130,-210 130,-190 188,-190 188,-210"/>
<text xml:space="preserve" text-anchor="middle" x="159" y="-196.5" font-family="Helvetica,sans-Serif" font-size="10.00">aht20_init</text>
</a>
</g>
</g>
<!-- Node1&#45;&gt;Node2 -->
<g id="edge1_Node000001_Node000002" class="edge">
<title>Node1&#45;&gt;Node2</title>
<g id="a_edge1_Node000001_Node000002"><a xlink:title=" ">
<path fill="none" stroke="#63b8ff" d="M35.88,-115.26C45.77,-131.61 67.3,-163.52 94,-181 101.42,-185.86 110.11,-189.51 118.67,-192.24"/>
<polygon fill="#63b8ff" stroke="#63b8ff" points="117.67,-195.59 128.24,-194.92 119.56,-188.85 117.67,-195.59"/>
</a>
</g>
</g>
<!-- Node3 -->
<g id="Node000003" class="node">
<title>Node3</title>
<g id="a_Node000003"><a xlink:href="main_2main_8c.html#a12fbcc517c402c44fa29f9dad1d1092b" target="_top" xlink:title="Initialize BLE Mesh stack and provisioning bearers.">
<polygon fill="white" stroke="#666666" points="197,-172 121,-172 121,-152 197,-152 197,-172"/>
<text xml:space="preserve" text-anchor="middle" x="159" y="-158.5" font-family="Helvetica,sans-Serif" font-size="10.00">ble_mesh_init</text>
</a>
</g>
</g>
<!-- Node1&#45;&gt;Node3 -->
<g id="edge2_Node000001_Node000003" class="edge">
<title>Node1&#45;&gt;Node3</title>
<g id="a_edge2_Node000001_Node000003"><a xlink:title=" ">
<path fill="none" stroke="#63b8ff" d="M45.2,-115.49C57.82,-123.83 76.48,-135.34 94,-143 98.98,-145.18 104.29,-147.2 109.63,-149.04"/>
<polygon fill="#63b8ff" stroke="#63b8ff" points="108.52,-152.36 119.11,-152.11 110.68,-145.7 108.52,-152.36"/>
</a>
</g>
</g>
<!-- Node14 -->
<g id="Node000014" class="node">
<title>Node14</title>
<g id="a_Node000014"><a xlink:href="board_8c.html#a916f2adc2080b4fe88034086d107a8dc" target="_top" xlink:title="Initialize board&#45;level hardware.">
<polygon fill="white" stroke="#666666" points="188,-134 130,-134 130,-114 188,-114 188,-134"/>
<text xml:space="preserve" text-anchor="middle" x="159" y="-120.5" font-family="Helvetica,sans-Serif" font-size="10.00">board_init</text>
</a>
</g>
</g>
<!-- Node1&#45;&gt;Node14 -->
<g id="edge14_Node000001_Node000014" class="edge">
<title>Node1&#45;&gt;Node14</title>
<g id="a_edge14_Node000001_Node000014"><a xlink:title=" ">
<path fill="none" stroke="#63b8ff" d="M58.41,-109.22C76.06,-111.84 99,-115.24 118.42,-118.12"/>
<polygon fill="#63b8ff" stroke="#63b8ff" points="117.77,-121.57 128.17,-119.57 118.8,-114.64 117.77,-121.57"/>
</a>
</g>
</g>
<!-- Node16 -->
<g id="Node000016" class="node">
<title>Node16</title>
<g id="a_Node000016"><a xlink:href="max30101_8h.html#af76306b2512cf4789c67e6f0dfb50a26" target="_top" xlink:title="Stub initialization when MAX30101 is disabled.">
<polygon fill="white" stroke="#666666" points="198.5,-96 119.5,-96 119.5,-76 198.5,-76 198.5,-96"/>
<text xml:space="preserve" text-anchor="middle" x="159" y="-82.5" font-family="Helvetica,sans-Serif" font-size="10.00">max30101_init</text>
</a>
</g>
</g>
<!-- Node1&#45;&gt;Node16 -->
<g id="edge16_Node000001_Node000016" class="edge">
<title>Node1&#45;&gt;Node16</title>
<g id="a_edge16_Node000001_Node000016"><a xlink:title=" ">
<path fill="none" stroke="#63b8ff" d="M58.41,-100.78C73.01,-98.62 91.23,-95.91 108.09,-93.41"/>
<polygon fill="#63b8ff" stroke="#63b8ff" points="108.6,-96.87 117.98,-91.94 107.57,-89.95 108.6,-96.87"/>
</a>
</g>
</g>
<!-- Node17 -->
<g id="Node000017" class="node">
<title>Node17</title>
<g id="a_Node000017"><a xlink:href="max30101_8h.html#a2dc7da42b5b3afe2e341808bab381d94" target="_top" xlink:title="Stub sampler start when MAX30101 is disabled.">
<polygon fill="white" stroke="#666666" points="224,-58 94,-58 94,-38 224,-38 224,-58"/>
<text xml:space="preserve" text-anchor="middle" x="159" y="-44.5" font-family="Helvetica,sans-Serif" font-size="10.00">max30101_start_sampling</text>
</a>
</g>
</g>
<!-- Node1&#45;&gt;Node17 -->
<g id="edge17_Node000001_Node000017" class="edge">
<title>Node1&#45;&gt;Node17</title>
<g id="a_edge17_Node000001_Node000017"><a xlink:title=" ">
<path fill="none" stroke="#63b8ff" d="M45.2,-94.51C57.82,-86.17 76.48,-74.66 94,-67 98.01,-65.25 102.22,-63.6 106.5,-62.06"/>
<polygon fill="#63b8ff" stroke="#63b8ff" points="107.37,-65.46 115.74,-58.96 105.14,-58.83 107.37,-65.46"/>
</a>
</g>
</g>
<!-- Node18 -->
<g id="Node000018" class="node">
<title>Node18</title>
<g id="a_Node000018"><a xlink:href="_s_g_p30_8h.html#ae89ef6d5045059efbc29848aaa998288" target="_top" xlink:title="Stub initialization when SGP30 is disabled.">
<polygon fill="white" stroke="#666666" points="189.12,-20 128.88,-20 128.88,0 189.12,0 189.12,-20"/>
<text xml:space="preserve" text-anchor="middle" x="159" y="-6.5" font-family="Helvetica,sans-Serif" font-size="10.00">sgp30_init</text>
</a>
</g>
</g>
<!-- Node1&#45;&gt;Node18 -->
<g id="edge18_Node000001_Node000018" class="edge">
<title>Node1&#45;&gt;Node18</title>
<g id="a_edge18_Node000001_Node000018"><a xlink:title=" ">
<path fill="none" stroke="#63b8ff" d="M35.88,-94.74C45.77,-78.39 67.3,-46.48 94,-29 101.07,-24.37 109.3,-20.84 117.45,-18.15"/>
<polygon fill="#63b8ff" stroke="#63b8ff" points="118.32,-21.55 126.96,-15.41 116.39,-14.82 118.32,-21.55"/>
</a>
</g>
</g>
<!-- Node4 -->
<g id="Node000004" class="node">
<title>Node4</title>
<g id="a_Node000004"><a xlink:href="board_8c.html#a1e260d8ae55d49d43ddf309ad368df26" target="_top" xlink:title="Set LED GPIO level and track previous state.">
<polygon fill="white" stroke="#666666" points="703.25,-245 600.25,-245 600.25,-225 703.25,-225 703.25,-245"/>
<text xml:space="preserve" text-anchor="middle" x="651.75" y="-231.5" font-family="Helvetica,sans-Serif" font-size="10.00">board_led_operation</text>
</a>
</g>
</g>
<!-- Node3&#45;&gt;Node4 -->
<g id="edge3_Node000003_Node000004" class="edge">
<title>Node3&#45;&gt;Node4</title>
<g id="a_edge3_Node000003_Node000004"><a xlink:title=" ">
<path fill="none" stroke="#63b8ff" d="M197.31,-168.29C206.65,-171.1 216.21,-175.15 224,-181 247.66,-198.77 234.03,-222.82 260,-237 371.8,-298.04 529.81,-268.46 606.1,-248.36"/>
<polygon fill="#63b8ff" stroke="#63b8ff" points="606.55,-251.86 615.28,-245.87 604.72,-245.11 606.55,-251.86"/>
</a>
</g>
</g>
<!-- Node5 -->
<g id="Node000005" class="node">
<title>Node5</title>
<g id="a_Node000005"><a xlink:href="main_2main_8c.html#ae77b1dd1df5756e1fb940ccd59ca4b5e" target="_top" xlink:title="Configuration server callback for model state changes.">
<polygon fill="white" stroke="#666666" points="412.12,-228 280.62,-228 280.62,-196 412.12,-196 412.12,-228"/>
<text xml:space="preserve" text-anchor="start" x="288.62" y="-214.5" font-family="Helvetica,sans-Serif" font-size="10.00">example_ble_mesh_config</text>
<text xml:space="preserve" text-anchor="middle" x="346.38" y="-202.5" font-family="Helvetica,sans-Serif" font-size="10.00">_server_cb</text>
</a>
</g>
</g>
<!-- Node3&#45;&gt;Node5 -->
<g id="edge4_Node000003_Node000005" class="edge">
<title>Node3&#45;&gt;Node5</title>
<g id="a_edge4_Node000003_Node000005"><a xlink:title=" ">
<path fill="none" stroke="#63b8ff" d="M197.07,-172C218.89,-177.88 247.23,-185.53 273.29,-192.56"/>
<polygon fill="#63b8ff" stroke="#63b8ff" points="272.26,-195.9 282.83,-195.13 274.08,-189.15 272.26,-195.9"/>
</a>
</g>
</g>
<!-- Node6 -->
<g id="Node000006" class="node">
<title>Node6</title>
<g id="a_Node000006"><a xlink:href="main_2main_8c.html#aac29b4973bbff9d751ca5720584e7044" target="_top" xlink:title="Vendor model callback for send/receive events.">
<polygon fill="white" stroke="#666666" points="415.12,-178 277.62,-178 277.62,-146 415.12,-146 415.12,-178"/>
<text xml:space="preserve" text-anchor="start" x="285.62" y="-164.5" font-family="Helvetica,sans-Serif" font-size="10.00">example_ble_mesh_custom</text>
<text xml:space="preserve" text-anchor="middle" x="346.38" y="-152.5" font-family="Helvetica,sans-Serif" font-size="10.00">_model_cb</text>
</a>
</g>
</g>
<!-- Node3&#45;&gt;Node6 -->
<g id="edge5_Node000003_Node000006" class="edge">
<title>Node3&#45;&gt;Node6</title>
<g id="a_edge5_Node000003_Node000006"><a xlink:title=" ">
<path fill="none" stroke="#63b8ff" d="M197.07,-162C216.86,-162 242.02,-162 265.98,-162"/>
<polygon fill="#63b8ff" stroke="#63b8ff" points="265.73,-165.5 275.73,-162 265.73,-158.5 265.73,-165.5"/>
</a>
</g>
</g>
<!-- Node7 -->
<g id="Node000007" class="node">
<title>Node7</title>
<g id="a_Node000007"><a xlink:href="main_2main_8c.html#ae851df26bfca3d7270354d8f3f7a2a3a" target="_top" xlink:title="BLE Mesh provisioning callback for node events.">
<polygon fill="white" stroke="#666666" points="432.75,-128 260,-128 260,-108 432.75,-108 432.75,-128"/>
<text xml:space="preserve" text-anchor="middle" x="346.38" y="-114.5" font-family="Helvetica,sans-Serif" font-size="10.00">example_ble_mesh_provisioning_cb</text>
</a>
</g>
</g>
<!-- Node3&#45;&gt;Node7 -->
<g id="edge6_Node000003_Node000007" class="edge">
<title>Node3&#45;&gt;Node7</title>
<g id="a_edge6_Node000003_Node000007"><a xlink:title=" ">
<path fill="none" stroke="#63b8ff" d="M197.46,-152.39C216.21,-147.64 239.27,-141.9 260,-137 268.52,-134.99 277.53,-132.92 286.38,-130.92"/>
<polygon fill="#63b8ff" stroke="#63b8ff" points="286.99,-134.37 295.98,-128.76 285.46,-127.54 286.99,-134.37"/>
</a>
</g>
</g>
<!-- Node8 -->
<g id="Node000008" class="node">
<title>Node8</title>
<g id="a_Node000008"><a xlink:href="main_2main_8c.html#a07a0bb87283a1d544425b2c64bc45bda" target="_top" xlink:title="Handle provisioning completion and turn off status LED.">
<polygon fill="white" stroke="#666666" points="548.5,-197 468.75,-197 468.75,-177 548.5,-177 548.5,-197"/>
<text xml:space="preserve" text-anchor="middle" x="508.62" y="-183.5" font-family="Helvetica,sans-Serif" font-size="10.00">prov_complete</text>
</a>
</g>
</g>
<!-- Node7&#45;&gt;Node8 -->
<g id="edge7_Node000007_Node000008" class="edge">
<title>Node7&#45;&gt;Node8</title>
<g id="a_edge7_Node000007_Node000008"><a xlink:title=" ">
<path fill="none" stroke="#63b8ff" d="M407.51,-128.43C416.14,-130.77 424.79,-133.6 432.75,-137 452.14,-145.29 471.88,-158.72 486.22,-169.58"/>
<polygon fill="#63b8ff" stroke="#63b8ff" points="483.98,-172.27 494.02,-175.66 488.29,-166.75 483.98,-172.27"/>
</a>
</g>
</g>
<!-- Node9 -->
<g id="Node000009" class="node">
<title>Node9</title>
<g id="a_Node000009"><a xlink:href="main_2main_8c.html#a51c85c785ff418595fca6cb6bdeadaec" target="_top" xlink:title="Sensor data publication callback.">
<polygon fill="white" stroke="#666666" points="545.88,-128 471.38,-128 471.38,-108 545.88,-108 545.88,-128"/>
<text xml:space="preserve" text-anchor="middle" x="508.62" y="-114.5" font-family="Helvetica,sans-Serif" font-size="10.00">pub_timer_cb</text>
</a>
</g>
</g>
<!-- Node7&#45;&gt;Node9 -->
<g id="edge9_Node000007_Node000009" class="edge">
<title>Node7&#45;&gt;Node9</title>
<g id="a_edge9_Node000007_Node000009"><a xlink:title=" ">
<path fill="none" stroke="#63b8ff" d="M433.13,-118C442.23,-118 451.24,-118 459.68,-118"/>
<polygon fill="#63b8ff" stroke="#63b8ff" points="459.66,-121.5 469.66,-118 459.66,-114.5 459.66,-121.5"/>
</a>
</g>
</g>
<!-- Node8&#45;&gt;Node4 -->
<g id="edge8_Node000008_Node000004" class="edge">
<title>Node8&#45;&gt;Node4</title>
<g id="a_edge8_Node000008_Node000004"><a xlink:title=" ">
<path fill="none" stroke="#63b8ff" d="M540.25,-197.42C560.5,-204.3 587.29,-213.42 609.42,-220.94"/>
<polygon fill="#63b8ff" stroke="#63b8ff" points="608.16,-224.21 618.75,-224.12 610.41,-217.58 608.16,-224.21"/>
</a>
</g>
</g>
<!-- Node10 -->
<g id="Node000010" class="node">
<title>Node10</title>
<g id="a_Node000010"><a xlink:href="aht20_8h.html#ac6edc10e16108823ec8740e5e65558eb" target="_top" xlink:title="Stub read when AHT20 is disabled.">
<polygon fill="white" stroke="#666666" points="696.88,-185 606.62,-185 606.62,-165 696.88,-165 696.88,-185"/>
<text xml:space="preserve" text-anchor="middle" x="651.75" y="-171.5" font-family="Helvetica,sans-Serif" font-size="10.00">aht20_read_x100</text>
</a>
</g>
</g>
<!-- Node9&#45;&gt;Node10 -->
<g id="edge10_Node000009_Node000010" class="edge">
<title>Node9&#45;&gt;Node10</title>
<g id="a_edge10_Node000009_Node000010"><a xlink:title=" ">
<path fill="none" stroke="#63b8ff" d="M527.64,-128.37C542.53,-136.64 564.42,-148.11 584.5,-156 589.14,-157.82 594.01,-159.55 598.94,-161.18"/>
<polygon fill="#63b8ff" stroke="#63b8ff" points="597.67,-164.45 608.26,-164.09 599.76,-157.77 597.67,-164.45"/>
</a>
</g>
</g>
<!-- Node11 -->
<g id="Node000011" class="node">
<title>Node11</title>
<g id="a_Node000011"><a xlink:href="max30101_8h.html#a098f481c6ba110c617a896ec43f02cd4" target="_top" xlink:title="Stub heart rate getter when MAX30101 is disabled.">
<polygon fill="white" stroke="#666666" points="716,-147 587.5,-147 587.5,-127 716,-127 716,-147"/>
<text xml:space="preserve" text-anchor="middle" x="651.75" y="-133.5" font-family="Helvetica,sans-Serif" font-size="10.00">max30101_get_heart_rate</text>
</a>
</g>
</g>
<!-- Node9&#45;&gt;Node11 -->
<g id="edge11_Node000009_Node000011" class="edge">
<title>Node9&#45;&gt;Node11</title>
<g id="a_edge11_Node000009_Node000011"><a xlink:title=" ">
<path fill="none" stroke="#63b8ff" d="M546.34,-122.94C555.51,-124.18 565.69,-125.55 575.99,-126.93"/>
<polygon fill="#63b8ff" stroke="#63b8ff" points="575.29,-130.37 585.66,-128.24 576.22,-123.43 575.29,-130.37"/>
</a>
</g>
</g>
<!-- Node12 -->
<g id="Node000012" class="node">
<title>Node12</title>
<g id="a_Node000012"><a xlink:href="max30101_8h.html#ae8038b9b65d4df2dc274ff534c83a974" target="_top" xlink:title="Stub raw value getter when MAX30101 is disabled.">
<polygon fill="white" stroke="#666666" points="719,-109 584.5,-109 584.5,-89 719,-89 719,-109"/>
<text xml:space="preserve" text-anchor="middle" x="651.75" y="-95.5" font-family="Helvetica,sans-Serif" font-size="10.00">max30101_get_raw_values</text>
</a>
</g>
</g>
<!-- Node9&#45;&gt;Node12 -->
<g id="edge12_Node000009_Node000012" class="edge">
<title>Node9&#45;&gt;Node12</title>
<g id="a_edge12_Node000009_Node000012"><a xlink:title=" ">
<path fill="none" stroke="#63b8ff" d="M546.34,-113.06C554.58,-111.95 563.63,-110.73 572.85,-109.49"/>
<polygon fill="#63b8ff" stroke="#63b8ff" points="573.2,-112.97 582.64,-108.17 572.27,-106.03 573.2,-112.97"/>
</a>
</g>
</g>
<!-- Node13 -->
<g id="Node000013" class="node">
<title>Node13</title>
<g id="a_Node000013"><a xlink:href="max30101_8h.html#a654f1aab2d5deafacaa1b6c63ec94628" target="_top" xlink:title="Stub SpO2 getter when MAX30101 is disabled.">
<polygon fill="white" stroke="#666666" points="704.75,-71 598.75,-71 598.75,-51 704.75,-51 704.75,-71"/>
<text xml:space="preserve" text-anchor="middle" x="651.75" y="-57.5" font-family="Helvetica,sans-Serif" font-size="10.00">max30101_get_spo2</text>
</a>
</g>
</g>
<!-- Node9&#45;&gt;Node13 -->
<g id="edge13_Node000009_Node000013" class="edge">
<title>Node9&#45;&gt;Node13</title>
<g id="a_edge13_Node000009_Node000013"><a xlink:title=" ">
<path fill="none" stroke="#63b8ff" d="M527.64,-107.63C542.53,-99.36 564.42,-87.89 584.5,-80 589.14,-78.18 594.01,-76.45 598.94,-74.82"/>
<polygon fill="#63b8ff" stroke="#63b8ff" points="599.76,-78.23 608.26,-71.91 597.67,-71.55 599.76,-78.23"/>
</a>
</g>
</g>
<!-- Node15 -->
<g id="Node000015" class="node">
<title>Node15</title>
<g id="a_Node000015"><a xlink:href="board_8c.html#a3ceeaa09d0a809b933e2a14190379172" target="_top" xlink:title="Initialize LED GPIO pins to output and off state.">
<polygon fill="white" stroke="#666666" points="384.38,-90 308.38,-90 308.38,-70 384.38,-70 384.38,-90"/>
<text xml:space="preserve" text-anchor="middle" x="346.38" y="-76.5" font-family="Helvetica,sans-Serif" font-size="10.00">board_led_init</text>
</a>
</g>
</g>
<!-- Node14&#45;&gt;Node15 -->
<g id="edge15_Node000014_Node000015" class="edge">
<title>Node14&#45;&gt;Node15</title>
<g id="a_edge15_Node000014_Node000015"><a xlink:title=" ">
<path fill="none" stroke="#63b8ff" d="M188.4,-116.69C208.39,-111.6 235.79,-104.72 260,-99 271.87,-96.2 284.7,-93.28 296.71,-90.6"/>
<polygon fill="#63b8ff" stroke="#63b8ff" points="297.44,-94.02 306.45,-88.44 295.93,-87.19 297.44,-94.02"/>
</a>
</g>
</g>
</g>
</svg>
