<?xml version="1.0" encoding="UTF-8" standalone="no"?>
<!DOCTYPE svg PUBLIC "-//W3C//DTD SVG 1.1//EN"
 "http://www.w3.org/Graphics/SVG/1.1/DTD/svg11.dtd">
<!-- Generated by graphviz version 14.1.2 (20260124.0452)
 -->
<!-- Title: pub_timer_cb Pages: 1 -->
<svg width="497pt" height="28pt"
 viewBox="0.00 0.00 497.00 28.00" xmlns="http://www.w3.org/2000/svg" xmlns:xlink="http://www.w3.org/1999/xlink">
<g id="graph0" class="graph" transform="scale(1 1) rotate(0) translate(4 24)">
<title>pub_timer_cb</title>
<!-- Node1 -->
<g id="Node000001" class="node">
<title>Node1</title>
<g id="a_Node000001"><a xlink:title="Sensor data publication callback.">
<polygon fill="#999999" stroke="#666666" points="489.25,-20 414.75,-20 414.75,0 489.25,0 489.25,-20"/>
<text xml:space="preserve" text-anchor="middle" x="452" y="-6.5" font-family="Helvetica,sans-Serif" font-size="10.00">pub_timer_cb</text>
</a>
</g>
</g>
<!-- Node2 -->
<g id="Node000002" class="node">
<title>Node2</title>
<g id="a_Node000002"><a xlink:href="main_2main_8c.html#ae851df26bfca3d7270354d8f3f7a2a3a" target="_top" xlink:title="BLE Mesh provisioning callback for node events.">
<polygon fill="white" stroke="#666666" points="378.75,-20 206,-20 206,0 378.75,0 378.75,-20"/>
<text xml:space="preserve" text-anchor="middle" x="292.38" y="-6.5" font-family="Helvetica,sans-Serif" font-size="10.00">example_ble_mesh_provisioning_cb</text>
</a>
</g>
</g>
<!-- Node1&#45;&gt;Node2 -->
<g id="edge1_Node000001_Node000002" class="edge">
<title>Node1&#45;&gt;Node2</title>
<g id="a_edge1_Node000001_Node000002"><a xlink:title=" ">
<path fill="none" stroke="#63b8ff" d="M403.17,-10C395.48,-10 387.31,-10 379.05,-10"/>
<polygon fill="#63b8ff" stroke="#63b8ff" points="402.93,-13.5 412.93,-10 402.93,-6.5 402.93,-13.5"/>
</a>
</g>
</g>
<!-- Node3 -->
<g id="Node000003" class="node">
<title>Node3</title>
<g id="a_Node000003"><a xlink:href="main_2main_8c.html#a12fbcc517c402c44fa29f9dad1d1092b" target="_top" xlink:title="Initialize BLE Mesh stack and provisioning bearers.">
<polygon fill="white" stroke="#666666" points="170,-20 94,-20 94,0 170,0 170,-20"/>
<text xml:space="preserve" text-anchor="middle" x="132" y="-6.5" font-family="Helvetica,sans-Serif" font-size="10.00">ble_mesh_init</text>
</a>
</g>
</g>
<!-- Node2&#45;&gt;Node3 -->
<g id="edge2_Node000002_Node000003" class="edge">
<title>Node2&#45;&gt;Node3</title>
<g id="a_edge2_Node000002_Node000003"><a xlink:title=" ">
<path fill="none" stroke="#63b8ff" d="M194.47,-10C186.02,-10 177.86,-10 170.39,-10"/>
<polygon fill="#63b8ff" stroke="#63b8ff" points="194.18,-13.5 204.18,-10 194.18,-6.5 194.18,-13.5"/>
</a>
</g>
</g>
<!-- Node4 -->
<g id="Node000004" class="node">
<title>Node4</title>
<g id="a_Node000004"><a xlink:href="main_2main_8c.html#a630544a7f0a2cc40d8a7fefab7e2fe70" target="_top" xlink:title="Application entry point.">
<polygon fill="white" stroke="#666666" points="58,-20 0,-20 0,0 58,0 58,-20"/>
<text xml:space="preserve" text-anchor="middle" x="29" y="-6.5" font-family="Helvetica,sans-Serif" font-size="10.00">app_main</text>
</a>
</g>
</g>
<!-- Node3&#45;&gt;Node4 -->
<g id="edge3_Node000003_Node000004" class="edge">
<title>Node3&#45;&gt;Node4</title>
<g id="a_edge3_Node000003_Node000004"><a xlink:title=" ">
<path fill="none" stroke="#63b8ff" d="M82.23,-10C74.03,-10 65.78,-10 58.33,-10"/>
<polygon fill="#63b8ff" stroke="#63b8ff" points="82.16,-13.5 92.16,-10 82.16,-6.5 82.16,-13.5"/>
</a>
</g>
</g>
</g>
</svg>
