<?xml version="1.0" encoding="UTF-8" standalone="no"?>
<!DOCTYPE svg PUBLIC "-//W3C//DTD SVG 1.1//EN"
 "http://www.w3.org/Graphics/SVG/1.1/DTD/svg11.dtd">
<!-- Generated by graphviz version 14.1.2 (20260124.0452)
 -->
<!-- Title: example_ble_mesh_config_server_cb Pages: 1 -->
<svg width="346pt" height="40pt"
 viewBox="0.00 0.00 346.00 40.00" xmlns="http://www.w3.org/2000/svg" xmlns:xlink="http://www.w3.org/1999/xlink">
<g id="graph0" class="graph" transform="scale(1 1) rotate(0) translate(4 36)">
<title>example_ble_mesh_config_server_cb</title>
<!-- Node1 -->
<g id="Node000001" class="node">
<title>Node1</title>
<g id="a_Node000001"><a xlink:title="Configuration server callback for model state changes.">
<polygon fill="#999999" stroke="#666666" points="337.5,-32 206,-32 206,0 337.5,0 337.5,-32"/>
<text xml:space="preserve" text-anchor="start" x="214" y="-18.5" font-family="Helvetica,sans-Serif" font-size="10.00">example_ble_mesh_config</text>
<text xml:space="preserve" text-anchor="middle" x="271.75" y="-6.5" font-family="Helvetica,sans-Serif" font-size="10.00">_server_cb</text>
</a>
</g>
</g>
<!-- Node2 -->
<g id="Node000002" class="node">
<title>Node2</title>
<g id="a_Node000002"><a xlink:href="main_2main_8c.html#a12fbcc517c402c44fa29f9dad1d1092b" target="_top" xlink:title="Initialize BLE Mesh stack and provisioning bearers.">
<polygon fill="white" stroke="#666666" points="170,-26 94,-26 94,-6 170,-6 170,-26"/>
<text xml:space="preserve" text-anchor="middle" x="132" y="-12.5" font-family="Helvetica,sans-Serif" font-size="10.00">ble_mesh_init</text>
</a>
</g>
</g>
<!-- Node1&#45;&gt;Node2 -->
<g id="edge1_Node000001_Node000002" class="edge">
<title>Node1&#45;&gt;Node2</title>
<g id="a_edge1_Node000001_Node000002"><a xlink:title=" ">
<path fill="none" stroke="#63b8ff" d="M194.16,-16C185.88,-16 177.75,-16 170.26,-16"/>
<polygon fill="#63b8ff" stroke="#63b8ff" points="193.99,-19.5 203.99,-16 193.99,-12.5 193.99,-19.5"/>
</a>
</g>
</g>
<!-- Node3 -->
<g id="Node000003" class="node">
<title>Node3</title>
<g id="a_Node000003"><a xlink:href="main_2main_8c.html#a630544a7f0a2cc40d8a7fefab7e2fe70" target="_top" xlink:title="Application entry point.">
<polygon fill="white" stroke="#666666" points="58,-26 0,-26 0,-6 58,-6 58,-26"/>
<text xml:space="preserve" text-anchor="middle" x="29" y="-12.5" font-family="Helvetica,sans-Serif" font-size="10.00">app_main</text>
</a>
</g>
</g>
<!-- Node2&#45;&gt;Node3 -->
<g id="edge2_Node000002_Node000003" class="edge">
<title>Node2&#45;&gt;Node3</title>
<g id="a_edge2_Node000002_Node000003"><a xlink:title=" ">
<path fill="none" stroke="#63b8ff" d="M82.23,-16C74.03,-16 65.78,-16 58.33,-16"/>
<polygon fill="#63b8ff" stroke="#63b8ff" points="82.16,-19.5 92.16,-16 82.16,-12.5 82.16,-19.5"/>
</a>
</g>
</g>
</g>
</svg>
