<?xml version="1.0" encoding="UTF-8" standalone="no"?>
<!DOCTYPE svg PUBLIC "-//W3C//DTD SVG 1.1//EN"
 "http://www.w3.org/Graphics/SVG/1.1/DTD/svg11.dtd">
<!-- Generated by graphviz version 14.1.2 (20260124.0452)
 -->
<!-- Title: main/main.c Pages: 1 -->
<svg width="1952pt" height="152pt"
 viewBox="0.00 0.00 1952.00 152.00" xmlns="http://www.w3.org/2000/svg" xmlns:xlink="http://www.w3.org/1999/xlink">
<g id="graph0" class="graph" transform="scale(1 1) rotate(0) translate(4 148)">
<title>main/main.c</title>
<!-- Node1 -->
<g id="Node000001" class="node">
<title>Node1</title>
<g id="a_Node000001"><a xlink:title="BLE Mesh vendor server with sensor integration and periodic publishing.">
<polygon fill="#999999" stroke="#666666" points="974.25,-144 905,-144 905,-124 974.25,-124 974.25,-144"/>
<text xml:space="preserve" text-anchor="middle" x="939.62" y="-130.5" font-family="Helvetica,sans-Serif" font-size="10.00">main/main.c</text>
</a>
</g>
</g>
<!-- Node2 -->
<g id="Node000002" class="node">
<title>Node2</title>
<g id="a_Node000002"><a xlink:title=" ">
<polygon fill="#e0e0e0" stroke="#999999" points="45.25,-82 0,-82 0,-62 45.25,-62 45.25,-82"/>
<text xml:space="preserve" text-anchor="middle" x="22.62" y="-68.5" font-family="Helvetica,sans-Serif" font-size="10.00">stdio.h</text>
</a>
</g>
</g>
<!-- Node1&#45;&gt;Node2 -->
<g id="edge1_Node000001_Node000002" class="edge">
<title>Node1&#45;&gt;Node2</title>
<g id="a_edge1_Node000001_Node000002"><a xlink:title=" ">
<path fill="none" stroke="#63b8ff" d="M904.74,-133.02C761.72,-132.81 219.94,-129.26 54.62,-88 53.03,-87.6 51.41,-87.12 49.8,-86.58"/>
<polygon fill="#63b8ff" stroke="#63b8ff" points="51.43,-83.46 40.85,-82.94 48.79,-89.95 51.43,-83.46"/>
</a>
</g>
</g>
<!-- Node3 -->
<g id="Node000003" class="node">
<title>Node3</title>
<g id="a_Node000003"><a xlink:title=" ">
<polygon fill="#e0e0e0" stroke="#999999" points="111.75,-82 63.5,-82 63.5,-62 111.75,-62 111.75,-82"/>
<text xml:space="preserve" text-anchor="middle" x="87.62" y="-68.5" font-family="Helvetica,sans-Serif" font-size="10.00">string.h</text>
</a>
</g>
</g>
<!-- Node1&#45;&gt;Node3 -->
<g id="edge2_Node000001_Node000003" class="edge">
<title>Node1&#45;&gt;Node3</title>
<g id="a_edge2_Node000001_Node000003"><a xlink:title=" ">
<path fill="none" stroke="#63b8ff" d="M904.67,-132.74C768.53,-131.49 273.77,-124.46 121.62,-88 119.85,-87.58 118.06,-87.06 116.27,-86.49"/>
<polygon fill="#63b8ff" stroke="#63b8ff" points="117.56,-83.23 106.97,-82.89 115.03,-89.76 117.56,-83.23"/>
</a>
</g>
</g>
<!-- Node4 -->
<g id="Node000004" class="node">
<title>Node4</title>
<g id="a_Node000004"><a xlink:title=" ">
<polygon fill="#e0e0e0" stroke="#999999" points="189,-82 130.25,-82 130.25,-62 189,-62 189,-82"/>
<text xml:space="preserve" text-anchor="middle" x="159.62" y="-68.5" font-family="Helvetica,sans-Serif" font-size="10.00">inttypes.h</text>
</a>
</g>
</g>
<!-- Node1&#45;&gt;Node4 -->
<g id="edge3_Node000001_Node000004" class="edge">
<title>Node1&#45;&gt;Node4</title>
<g id="a_edge3_Node000001_Node000004"><a xlink:title=" ">
<path fill="none" stroke="#63b8ff" d="M904.51,-132.33C776.46,-129.68 334.96,-118.46 197.62,-88 195.44,-87.52 193.22,-86.92 191.01,-86.26"/>
<polygon fill="#63b8ff" stroke="#63b8ff" points="192.18,-82.96 181.59,-82.97 189.87,-89.57 192.18,-82.96"/>
</a>
</g>
</g>
<!-- Node5 -->
<g id="Node000005" class="node">
<title>Node5</title>
<g id="a_Node000005"><a xlink:title=" ">
<polygon fill="#e0e0e0" stroke="#999999" points="264.62,-82 206.62,-82 206.62,-62 264.62,-62 264.62,-82"/>
<text xml:space="preserve" text-anchor="middle" x="235.62" y="-68.5" font-family="Helvetica,sans-Serif" font-size="10.00">esp_log.h</text>
</a>
</g>
</g>
<!-- Node1&#45;&gt;Node5 -->
<g id="edge4_Node000001_Node000005" class="edge">
<title>Node1&#45;&gt;Node5</title>
<g id="a_edge4_Node000001_Node000005"><a xlink:title=" ">
<path fill="none" stroke="#63b8ff" d="M904.87,-132.06C785.91,-128.64 395.72,-115.52 273.62,-88 271.45,-87.51 269.23,-86.91 267.01,-86.24"/>
<polygon fill="#63b8ff" stroke="#63b8ff" points="268.19,-82.94 257.59,-82.94 265.87,-89.55 268.19,-82.94"/>
</a>
</g>
</g>
<!-- Node6 -->
<g id="Node000006" class="node">
<title>Node6</title>
<g id="a_Node000006"><a xlink:title=" ">
<polygon fill="#e0e0e0" stroke="#999999" points="348.75,-82 282.5,-82 282.5,-62 348.75,-62 348.75,-82"/>
<text xml:space="preserve" text-anchor="middle" x="315.62" y="-68.5" font-family="Helvetica,sans-Serif" font-size="10.00">nvs_flash.h</text>
</a>
</g>
</g>
<!-- Node1&#45;&gt;Node6 -->
<g id="edge5_Node000001_Node000006" class="edge">
<title>Node1&#45;&gt;Node6</title>
<g id="a_edge5_Node000001_Node000006"><a xlink:title=" ">
<path fill="none" stroke="#63b8ff" d="M904.81,-133.41C813.91,-133.82 562.36,-130.67 358.62,-88 355.68,-87.38 352.66,-86.62 349.65,-85.76"/>
<polygon fill="#63b8ff" stroke="#63b8ff" points="351,-82.52 340.41,-82.83 348.89,-89.19 351,-82.52"/>
</a>
</g>
</g>
<!-- Node7 -->
<g id="Node000007" class="node">
<title>Node7</title>
<g id="a_Node000007"><a xlink:title=" ">
<polygon fill="#e0e0e0" stroke="#999999" points="434.12,-82 367.12,-82 367.12,-62 434.12,-62 434.12,-82"/>
<text xml:space="preserve" text-anchor="middle" x="400.62" y="-68.5" font-family="Helvetica,sans-Serif" font-size="10.00">esp_timer.h</text>
</a>
</g>
</g>
<!-- Node1&#45;&gt;Node7 -->
<g id="edge6_Node000001_Node000007" class="edge">
<title>Node1&#45;&gt;Node7</title>
<g id="a_edge6_Node000001_Node000007"><a xlink:title=" ">
<path fill="none" stroke="#63b8ff" d="M904.52,-132.85C822.61,-131.84 612.91,-125.48 442.62,-88 440.01,-87.42 437.33,-86.73 434.66,-85.96"/>
<polygon fill="#63b8ff" stroke="#63b8ff" points="435.9,-82.68 425.3,-82.94 433.75,-89.34 435.9,-82.68"/>
</a>
</g>
</g>
<!-- Node8 -->
<g id="Node000008" class="node">
<title>Node8</title>
<g id="a_Node000008"><a xlink:title=" ">
<polygon fill="#e0e0e0" stroke="#999999" points="563.25,-82 452,-82 452,-62 563.25,-62 563.25,-82"/>
<text xml:space="preserve" text-anchor="middle" x="507.62" y="-68.5" font-family="Helvetica,sans-Serif" font-size="10.00">esp_ble_mesh_defs.h</text>
</a>
</g>
</g>
<!-- Node1&#45;&gt;Node8 -->
<g id="edge7_Node000001_Node000008" class="edge">
<title>Node1&#45;&gt;Node8</title>
<g id="a_edge7_Node000001_Node000008"><a xlink:title=" ">
<path fill="none" stroke="#63b8ff" d="M904.53,-129.93C838.99,-123.93 693.69,-109.33 572.62,-88 567.41,-87.08 561.99,-86.01 556.59,-84.88"/>
<polygon fill="#63b8ff" stroke="#63b8ff" points="557.64,-81.52 547.12,-82.8 556.14,-88.36 557.64,-81.52"/>
</a>
</g>
</g>
<!-- Node9 -->
<g id="Node000009" class="node">
<title>Node9</title>
<g id="a_Node000009"><a xlink:title=" ">
<polygon fill="#e0e0e0" stroke="#999999" points="703.5,-88 581.75,-88 581.75,-56 703.5,-56 703.5,-88"/>
<text xml:space="preserve" text-anchor="start" x="589.75" y="-74.5" font-family="Helvetica,sans-Serif" font-size="10.00">esp_ble_mesh_common</text>
<text xml:space="preserve" text-anchor="middle" x="642.62" y="-62.5" font-family="Helvetica,sans-Serif" font-size="10.00">_api.h</text>
</a>
</g>
</g>
<!-- Node1&#45;&gt;Node9 -->
<g id="edge8_Node000001_Node000009" class="edge">
<title>Node1&#45;&gt;Node9</title>
<g id="a_edge8_Node000001_Node000009"><a xlink:title=" ">
<path fill="none" stroke="#63b8ff" d="M904.59,-126.23C862.15,-117.99 788.18,-103.5 714.96,-88.46"/>
<polygon fill="#63b8ff" stroke="#63b8ff" points="715.68,-85.04 705.18,-86.45 714.27,-91.89 715.68,-85.04"/>
</a>
</g>
</g>
<!-- Node10 -->
<g id="Node000010" class="node">
<title>Node10</title>
<g id="a_Node000010"><a xlink:title=" ">
<polygon fill="#e0e0e0" stroke="#999999" points="853.38,-88 721.88,-88 721.88,-56 853.38,-56 853.38,-88"/>
<text xml:space="preserve" text-anchor="start" x="729.88" y="-74.5" font-family="Helvetica,sans-Serif" font-size="10.00">esp_ble_mesh_networking</text>
<text xml:space="preserve" text-anchor="middle" x="787.62" y="-62.5" font-family="Helvetica,sans-Serif" font-size="10.00">_api.h</text>
</a>
</g>
</g>
<!-- Node1&#45;&gt;Node10 -->
<g id="edge9_Node000001_Node000010" class="edge">
<title>Node1&#45;&gt;Node10</title>
<g id="a_edge9_Node000001_Node000010"><a xlink:title=" ">
<path fill="none" stroke="#63b8ff" d="M915.88,-123.62C894.96,-115.37 863.81,-103.07 837.45,-92.67"/>
<polygon fill="#63b8ff" stroke="#63b8ff" points="838.86,-89.46 828.28,-89.05 836.29,-95.97 838.86,-89.46"/>
</a>
</g>
</g>
<!-- Node11 -->
<g id="Node000011" class="node">
<title>Node11</title>
<g id="a_Node000011"><a xlink:title=" ">
<polygon fill="#e0e0e0" stroke="#999999" points="1007.62,-88 871.62,-88 871.62,-56 1007.62,-56 1007.62,-88"/>
<text xml:space="preserve" text-anchor="start" x="879.62" y="-74.5" font-family="Helvetica,sans-Serif" font-size="10.00">esp_ble_mesh_provisioning</text>
<text xml:space="preserve" text-anchor="middle" x="939.62" y="-62.5" font-family="Helvetica,sans-Serif" font-size="10.00">_api.h</text>
</a>
</g>
</g>
<!-- Node1&#45;&gt;Node11 -->
<g id="edge10_Node000001_Node000011" class="edge">
<title>Node1&#45;&gt;Node11</title>
<g id="a_edge10_Node000001_Node000011"><a xlink:title=" ">
<path fill="none" stroke="#63b8ff" d="M939.62,-123.62C939.62,-117.1 939.62,-108.05 939.62,-99.4"/>
<polygon fill="#63b8ff" stroke="#63b8ff" points="943.13,-99.65 939.63,-89.65 936.13,-99.65 943.13,-99.65"/>
</a>
</g>
</g>
<!-- Node12 -->
<g id="Node000012" class="node">
<title>Node12</title>
<g id="a_Node000012"><a xlink:title=" ">
<polygon fill="#e0e0e0" stroke="#999999" points="1135.88,-88 1025.38,-88 1025.38,-56 1135.88,-56 1135.88,-88"/>
<text xml:space="preserve" text-anchor="start" x="1033.38" y="-74.5" font-family="Helvetica,sans-Serif" font-size="10.00">esp_ble_mesh_config</text>
<text xml:space="preserve" text-anchor="middle" x="1080.62" y="-62.5" font-family="Helvetica,sans-Serif" font-size="10.00">_model_api.h</text>
</a>
</g>
</g>
<!-- Node1&#45;&gt;Node12 -->
<g id="edge11_Node000001_Node000012" class="edge">
<title>Node1&#45;&gt;Node12</title>
<g id="a_edge11_Node000001_Node000012"><a xlink:title=" ">
<path fill="none" stroke="#63b8ff" d="M961.66,-123.62C980.89,-115.44 1009.44,-103.29 1033.75,-92.95"/>
<polygon fill="#63b8ff" stroke="#63b8ff" points="1035,-96.22 1042.83,-89.08 1032.26,-89.78 1035,-96.22"/>
</a>
</g>
</g>
<!-- Node13 -->
<g id="Node000013" class="node">
<title>Node13</title>
<g id="a_Node000013"><a xlink:title=" ">
<polygon fill="#e0e0e0" stroke="#999999" points="1241.25,-82 1154,-82 1154,-62 1241.25,-62 1241.25,-82"/>
<text xml:space="preserve" text-anchor="middle" x="1197.62" y="-68.5" font-family="Helvetica,sans-Serif" font-size="10.00">esp_bt_device.h</text>
</a>
</g>
</g>
<!-- Node1&#45;&gt;Node13 -->
<g id="edge12_Node000001_Node000013" class="edge">
<title>Node1&#45;&gt;Node13</title>
<g id="a_edge12_Node000001_Node000013"><a xlink:title=" ">
<path fill="none" stroke="#63b8ff" d="M974.59,-125.99C1015.52,-117.63 1085.25,-102.9 1144.62,-88 1147.9,-87.18 1151.29,-86.29 1154.69,-85.39"/>
<polygon fill="#63b8ff" stroke="#63b8ff" points="1155.3,-88.85 1164.02,-82.83 1153.45,-82.1 1155.3,-88.85"/>
</a>
</g>
</g>
<!-- Node14 -->
<g id="Node000014" class="node">
<title>Node14</title>
<g id="a_Node000014"><a xlink:title=" ">
<polygon fill="#e0e0e0" stroke="#999999" points="1356.12,-82 1259.12,-82 1259.12,-62 1356.12,-62 1356.12,-82"/>
<text xml:space="preserve" text-anchor="middle" x="1307.62" y="-68.5" font-family="Helvetica,sans-Serif" font-size="10.00">esp_gap_ble_api.h</text>
</a>
</g>
</g>
<!-- Node1&#45;&gt;Node14 -->
<g id="edge13_Node000001_Node000014" class="edge">
<title>Node1&#45;&gt;Node14</title>
<g id="a_edge13_Node000001_Node000014"><a xlink:title=" ">
<path fill="none" stroke="#63b8ff" d="M974.36,-129.28C1032.07,-122.81 1151.19,-108.21 1250.62,-88 1254.73,-87.17 1258.97,-86.22 1263.21,-85.21"/>
<polygon fill="#63b8ff" stroke="#63b8ff" points="1263.99,-88.62 1272.85,-82.81 1262.3,-81.83 1263.99,-88.62"/>
</a>
</g>
</g>
<!-- Node15 -->
<g id="Node000015" class="node">
<title>Node15</title>
<g id="a_Node000015"><a xlink:href="board_8h.html" target="_top" xlink:title="Board&#45;specific LED and GPIO helpers.">
<polygon fill="white" stroke="#666666" points="1422.75,-82 1374.5,-82 1374.5,-62 1422.75,-62 1422.75,-82"/>
<text xml:space="preserve" text-anchor="middle" x="1398.62" y="-68.5" font-family="Helvetica,sans-Serif" font-size="10.00">board.h</text>
</a>
</g>
</g>
<!-- Node1&#45;&gt;Node15 -->
<g id="edge14_Node000001_Node000015" class="edge">
<title>Node1&#45;&gt;Node15</title>
<g id="a_edge14_Node000001_Node000015"><a xlink:title=" ">
<path fill="none" stroke="#63b8ff" d="M974.55,-133.07C1048.2,-132.4 1224.27,-126.5 1365.62,-88 1367.03,-87.62 1368.44,-87.18 1369.86,-86.71"/>
<polygon fill="#63b8ff" stroke="#63b8ff" points="1371.1,-89.98 1379.11,-83.05 1368.52,-83.47 1371.1,-89.98"/>
</a>
</g>
</g>
<!-- Node17 -->
<g id="Node000017" class="node">
<title>Node17</title>
<g id="a_Node000017"><a xlink:title=" ">
<polygon fill="#e0e0e0" stroke="#999999" points="1566.75,-82 1440.5,-82 1440.5,-62 1566.75,-62 1566.75,-82"/>
<text xml:space="preserve" text-anchor="middle" x="1503.62" y="-68.5" font-family="Helvetica,sans-Serif" font-size="10.00">ble_mesh_example_init.h</text>
</a>
</g>
</g>
<!-- Node1&#45;&gt;Node17 -->
<g id="edge16_Node000001_Node000017" class="edge">
<title>Node1&#45;&gt;Node17</title>
<g id="a_edge16_Node000001_Node000017"><a xlink:title=" ">
<path fill="none" stroke="#63b8ff" d="M974.69,-131.17C1055.57,-126.65 1261.33,-113.44 1431.62,-88 1438.02,-87.05 1444.69,-85.88 1451.3,-84.63"/>
<polygon fill="#63b8ff" stroke="#63b8ff" points="1451.65,-88.13 1460.79,-82.75 1450.3,-81.26 1451.65,-88.13"/>
</a>
</g>
</g>
<!-- Node18 -->
<g id="Node000018" class="node">
<title>Node18</title>
<g id="a_Node000018"><a xlink:href="config_8h.html" target="_top" xlink:title="Compile&#45;time configuration for different ESP32&#45;S3 sensor configurations.">
<polygon fill="white" stroke="#666666" points="1688.88,-20 1638.38,-20 1638.38,0 1688.88,0 1688.88,-20"/>
<text xml:space="preserve" text-anchor="middle" x="1663.62" y="-6.5" font-family="Helvetica,sans-Serif" font-size="10.00">config.h</text>
</a>
</g>
</g>
<!-- Node1&#45;&gt;Node18 -->
<g id="edge17_Node000001_Node000018" class="edge">
<title>Node1&#45;&gt;Node18</title>
<g id="a_edge17_Node000001_Node000018"><a xlink:title=" ">
<path fill="none" stroke="#63b8ff" d="M974.48,-133.42C1090.98,-134.4 1465.65,-133.81 1575.62,-88 1579.78,-86.27 1620.36,-50.03 1644.94,-27.89"/>
<polygon fill="#63b8ff" stroke="#63b8ff" points="1646.97,-30.77 1652.05,-21.48 1642.28,-25.58 1646.97,-30.77"/>
</a>
</g>
</g>
<!-- Node19 -->
<g id="Node000019" class="node">
<title>Node19</title>
<g id="a_Node000019"><a xlink:href="aht20_8h.html" target="_top" xlink:title="AHT20 temperature and humidity sensor interface.">
<polygon fill="white" stroke="#666666" points="1832.5,-82 1746.75,-82 1746.75,-62 1832.5,-62 1832.5,-82"/>
<text xml:space="preserve" text-anchor="middle" x="1789.62" y="-68.5" font-family="Helvetica,sans-Serif" font-size="10.00">sensors/aht20.h</text>
</a>
</g>
</g>
<!-- Node1&#45;&gt;Node19 -->
<g id="edge18_Node000001_Node000019" class="edge">
<title>Node1&#45;&gt;Node19</title>
<g id="a_edge18_Node000001_Node000019"><a xlink:title=" ">
<path fill="none" stroke="#63b8ff" d="M974.51,-132.07C1108.15,-128.37 1587.49,-113.55 1737.62,-88 1741.71,-87.3 1745.93,-86.4 1750.12,-85.39"/>
<polygon fill="#63b8ff" stroke="#63b8ff" points="1750.78,-88.83 1759.55,-82.89 1748.99,-82.07 1750.78,-88.83"/>
</a>
</g>
</g>
<!-- Node22 -->
<g id="Node000022" class="node">
<title>Node22</title>
<g id="a_Node000022"><a xlink:href="max30101_8h.html" target="_top" xlink:title="MAX30101 heart rate and SpO2 sensor interface.">
<polygon fill="white" stroke="#666666" points="1729,-82 1622.25,-82 1622.25,-62 1729,-62 1729,-82"/>
<text xml:space="preserve" text-anchor="middle" x="1675.62" y="-68.5" font-family="Helvetica,sans-Serif" font-size="10.00">sensors/max30101.h</text>
</a>
</g>
</g>
<!-- Node1&#45;&gt;Node22 -->
<g id="edge22_Node000001_Node000022" class="edge">
<title>Node1&#45;&gt;Node22</title>
<g id="a_edge22_Node000001_Node000022"><a xlink:title=" ">
<path fill="none" stroke="#63b8ff" d="M974.65,-132.53C1074.31,-130.79 1367.84,-122.84 1608.62,-88 1614.67,-87.13 1620.98,-86 1627.21,-84.76"/>
<polygon fill="#63b8ff" stroke="#63b8ff" points="1627.71,-88.23 1636.77,-82.74 1626.26,-81.38 1627.71,-88.23"/>
</a>
</g>
</g>
<!-- Node23 -->
<g id="Node000023" class="node">
<title>Node23</title>
<g id="a_Node000023"><a xlink:href="_s_g_p30_8h.html" target="_top" xlink:title="SGP30 air quality sensor interface.">
<polygon fill="white" stroke="#666666" points="1944.25,-82 1851,-82 1851,-62 1944.25,-62 1944.25,-82"/>
<text xml:space="preserve" text-anchor="middle" x="1897.62" y="-68.5" font-family="Helvetica,sans-Serif" font-size="10.00">sensors/SGP30.h</text>
</a>
</g>
</g>
<!-- Node1&#45;&gt;Node23 -->
<g id="edge26_Node000001_Node000023" class="edge">
<title>Node1&#45;&gt;Node23</title>
<g id="a_edge26_Node000001_Node000023"><a xlink:title=" ">
<path fill="none" stroke="#63b8ff" d="M974.52,-132.25C1118.88,-128.98 1669.89,-114.97 1841.62,-88 1846.32,-87.26 1851.19,-86.29 1856.02,-85.18"/>
<polygon fill="#63b8ff" stroke="#63b8ff" points="1856.74,-88.61 1865.6,-82.8 1855.05,-81.82 1856.74,-88.61"/>
</a>
</g>
</g>
<!-- Node16 -->
<g id="Node000016" class="node">
<title>Node16</title>
<g id="a_Node000016"><a xlink:title=" ">
<polygon fill="#e0e0e0" stroke="#999999" points="1433.25,-20 1364,-20 1364,0 1433.25,0 1433.25,-20"/>
<text xml:space="preserve" text-anchor="middle" x="1398.62" y="-6.5" font-family="Helvetica,sans-Serif" font-size="10.00">driver/gpio.h</text>
</a>
</g>
</g>
<!-- Node15&#45;&gt;Node16 -->
<g id="edge15_Node000015_Node000016" class="edge">
<title>Node15&#45;&gt;Node16</title>
<g id="a_edge15_Node000015_Node000016"><a xlink:title=" ">
<path fill="none" stroke="#63b8ff" d="M1398.62,-61.62C1398.62,-53.56 1398.62,-41.65 1398.62,-31.41"/>
<polygon fill="#63b8ff" stroke="#63b8ff" points="1402.13,-31.63 1398.63,-21.63 1395.13,-31.63 1402.13,-31.63"/>
</a>
</g>
</g>
<!-- Node19&#45;&gt;Node18 -->
<g id="edge19_Node000019_Node000018" class="edge">
<title>Node19&#45;&gt;Node18</title>
<g id="a_edge19_Node000019_Node000018"><a xlink:title=" ">
<path fill="none" stroke="#63b8ff" d="M1769.94,-61.62C1749.41,-51.85 1716.99,-36.41 1693.35,-25.15"/>
<polygon fill="#63b8ff" stroke="#63b8ff" points="1695.07,-22.1 1684.54,-20.96 1692.06,-28.42 1695.07,-22.1"/>
</a>
</g>
</g>
<!-- Node20 -->
<g id="Node000020" class="node">
<title>Node20</title>
<g id="a_Node000020"><a xlink:title=" ">
<polygon fill="#e0e0e0" stroke="#999999" points="1828.88,-20 1772.38,-20 1772.38,0 1828.88,0 1828.88,-20"/>
<text xml:space="preserve" text-anchor="middle" x="1800.62" y="-6.5" font-family="Helvetica,sans-Serif" font-size="10.00">esp_err.h</text>
</a>
</g>
</g>
<!-- Node19&#45;&gt;Node20 -->
<g id="edge20_Node000019_Node000020" class="edge">
<title>Node19&#45;&gt;Node20</title>
<g id="a_edge20_Node000019_Node000020"><a xlink:title=" ">
<path fill="none" stroke="#63b8ff" d="M1791.34,-61.62C1792.82,-53.56 1795.01,-41.65 1796.88,-31.41"/>
<polygon fill="#63b8ff" stroke="#63b8ff" points="1800.32,-32.07 1798.68,-21.6 1793.44,-30.81 1800.32,-32.07"/>
</a>
</g>
</g>
<!-- Node21 -->
<g id="Node000021" class="node">
<title>Node21</title>
<g id="a_Node000021"><a xlink:title=" ">
<polygon fill="#e0e0e0" stroke="#999999" points="1754.75,-20 1706.5,-20 1706.5,0 1754.75,0 1754.75,-20"/>
<text xml:space="preserve" text-anchor="middle" x="1730.62" y="-6.5" font-family="Helvetica,sans-Serif" font-size="10.00">stdint.h</text>
</a>
</g>
</g>
<!-- Node19&#45;&gt;Node21 -->
<g id="edge21_Node000019_Node000021" class="edge">
<title>Node19&#45;&gt;Node21</title>
<g id="a_edge21_Node000019_Node000021"><a xlink:title=" ">
<path fill="none" stroke="#63b8ff" d="M1780.41,-61.62C1771.61,-52.68 1758.15,-38.99 1747.44,-28.1"/>
<polygon fill="#63b8ff" stroke="#63b8ff" points="1750.15,-25.87 1740.65,-21.19 1745.16,-30.78 1750.15,-25.87"/>
</a>
</g>
</g>
<!-- Node22&#45;&gt;Node18 -->
<g id="edge23_Node000022_Node000018" class="edge">
<title>Node22&#45;&gt;Node18</title>
<g id="a_edge23_Node000022_Node000018"><a xlink:title=" ">
<path fill="none" stroke="#63b8ff" d="M1673.75,-61.62C1672.12,-53.48 1669.7,-41.39 1667.64,-31.07"/>
<polygon fill="#63b8ff" stroke="#63b8ff" points="1671.14,-30.72 1665.74,-21.6 1664.27,-32.09 1671.14,-30.72"/>
</a>
</g>
</g>
<!-- Node22&#45;&gt;Node20 -->
<g id="edge24_Node000022_Node000020" class="edge">
<title>Node22&#45;&gt;Node20</title>
<g id="a_edge24_Node000022_Node000020"><a xlink:title=" ">
<path fill="none" stroke="#63b8ff" d="M1695.16,-61.62C1715.52,-51.85 1747.68,-36.41 1771.14,-25.15"/>
<polygon fill="#63b8ff" stroke="#63b8ff" points="1772.37,-28.45 1779.87,-20.96 1769.34,-22.14 1772.37,-28.45"/>
</a>
</g>
</g>
<!-- Node22&#45;&gt;Node21 -->
<g id="edge25_Node000022_Node000021" class="edge">
<title>Node22&#45;&gt;Node21</title>
<g id="a_edge25_Node000022_Node000021"><a xlink:title=" ">
<path fill="none" stroke="#63b8ff" d="M1684.22,-61.62C1692.34,-52.77 1704.72,-39.26 1714.65,-28.43"/>
<polygon fill="#63b8ff" stroke="#63b8ff" points="1717.07,-30.97 1721.25,-21.23 1711.91,-26.23 1717.07,-30.97"/>
</a>
</g>
</g>
<!-- Node23&#45;&gt;Node20 -->
<g id="edge27_Node000023_Node000020" class="edge">
<title>Node23&#45;&gt;Node20</title>
<g id="a_edge27_Node000023_Node000020"><a xlink:title=" ">
<path fill="none" stroke="#63b8ff" d="M1882.47,-61.62C1867.16,-52.16 1843.27,-37.38 1825.25,-26.23"/>
<polygon fill="#63b8ff" stroke="#63b8ff" points="1827.31,-23.39 1816.96,-21.11 1823.63,-29.34 1827.31,-23.39"/>
</a>
</g>
</g>
</g>
</svg>
