<?xml version="1.0" encoding="UTF-8" standalone="no"?>
<!DOCTYPE svg PUBLIC "-//W3C//DTD SVG 1.1//EN"
 "http://www.w3.org/Graphics/SVG/1.1/DTD/svg11.dtd">
<!-- Generated by graphviz version 14.1.2 (20260124.0452)
 -->
<!-- Title: pub_timer_cb Pages: 1 -->
<svg width="253pt" height="142pt"
 viewBox="0.00 0.00 253.00 142.00" xmlns="http://www.w3.org/2000/svg" xmlns:xlink="http://www.w3.org/1999/xlink">
<g id="graph0" class="graph" transform="scale(1 1) rotate(0) translate(4 138)">
<title>pub_timer_cb</title>
<!-- Node1 -->
<g id="Node000001" class="node">
<title>Node1</title>
<g id="a_Node000001"><a xlink:title="Sensor data publication callback.">
<polygon fill="#999999" stroke="#666666" points="74.5,-77 0,-77 0,-57 74.5,-57 74.5,-77"/>
<text xml:space="preserve" text-anchor="middle" x="37.25" y="-63.5" font-family="Helvetica,sans-Serif" font-size="10.00">pub_timer_cb</text>
</a>
</g>
</g>
<!-- Node2 -->
<g id="Node000002" class="node">
<title>Node2</title>
<g id="a_Node000002"><a xlink:href="aht20_8h.html#ac6edc10e16108823ec8740e5e65558eb" target="_top" xlink:title="Stub read when AHT20 is disabled.">
<polygon fill="white" stroke="#666666" points="222.88,-134 132.62,-134 132.62,-114 222.88,-114 222.88,-134"/>
<text xml:space="preserve" text-anchor="middle" x="177.75" y="-120.5" font-family="Helvetica,sans-Serif" font-size="10.00">aht20_read_x100</text>
</a>
</g>
</g>
<!-- Node1&#45;&gt;Node2 -->
<g id="edge1_Node000001_Node000002" class="edge">
<title>Node1&#45;&gt;Node2</title>
<g id="a_edge1_Node000001_Node000002"><a xlink:title=" ">
<path fill="none" stroke="#63b8ff" d="M55.58,-77.41C69.93,-85.71 91.03,-97.19 110.5,-105 115.06,-106.83 119.86,-108.56 124.7,-110.18"/>
<polygon fill="#63b8ff" stroke="#63b8ff" points="123.28,-113.4 133.87,-113.08 125.39,-106.72 123.28,-113.4"/>
</a>
</g>
</g>
<!-- Node3 -->
<g id="Node000003" class="node">
<title>Node3</title>
<g id="a_Node000003"><a xlink:href="max30101_8h.html#a098f481c6ba110c617a896ec43f02cd4" target="_top" xlink:title="Stub heart rate getter when MAX30101 is disabled.">
<polygon fill="white" stroke="#666666" points="242,-96 113.5,-96 113.5,-76 242,-76 242,-96"/>
<text xml:space="preserve" text-anchor="middle" x="177.75" y="-82.5" font-family="Helvetica,sans-Serif" font-size="10.00">max30101_get_heart_rate</text>
</a>
</g>
</g>
<!-- Node1&#45;&gt;Node3 -->
<g id="edge2_Node000001_Node000003" class="edge">
<title>Node1&#45;&gt;Node3</title>
<g id="a_edge2_Node000001_Node000003"><a xlink:title=" ">
<path fill="none" stroke="#63b8ff" d="M74.64,-71.99C83.11,-73.15 92.43,-74.43 101.89,-75.73"/>
<polygon fill="#63b8ff" stroke="#63b8ff" points="101.14,-79.16 111.52,-77.05 102.09,-72.22 101.14,-79.16"/>
</a>
</g>
</g>
<!-- Node4 -->
<g id="Node000004" class="node">
<title>Node4</title>
<g id="a_Node000004"><a xlink:href="max30101_8h.html#ae8038b9b65d4df2dc274ff534c83a974" target="_top" xlink:title="Stub raw value getter when MAX30101 is disabled.">
<polygon fill="white" stroke="#666666" points="245,-58 110.5,-58 110.5,-38 245,-38 245,-58"/>
<text xml:space="preserve" text-anchor="middle" x="177.75" y="-44.5" font-family="Helvetica,sans-Serif" font-size="10.00">max30101_get_raw_values</text>
</a>
</g>
</g>
<!-- Node1&#45;&gt;Node4 -->
<g id="edge3_Node000001_Node000004" class="edge">
<title>Node1&#45;&gt;Node4</title>
<g id="a_edge3_Node000001_Node000004"><a xlink:title=" ">
<path fill="none" stroke="#63b8ff" d="M74.64,-62.01C82.22,-60.97 90.48,-59.83 98.92,-58.68"/>
<polygon fill="#63b8ff" stroke="#63b8ff" points="99.13,-62.18 108.56,-57.35 98.18,-55.25 99.13,-62.18"/>
</a>
</g>
</g>
<!-- Node5 -->
<g id="Node000005" class="node">
<title>Node5</title>
<g id="a_Node000005"><a xlink:href="max30101_8h.html#a654f1aab2d5deafacaa1b6c63ec94628" target="_top" xlink:title="Stub SpO2 getter when MAX30101 is disabled.">
<polygon fill="white" stroke="#666666" points="230.75,-20 124.75,-20 124.75,0 230.75,0 230.75,-20"/>
<text xml:space="preserve" text-anchor="middle" x="177.75" y="-6.5" font-family="Helvetica,sans-Serif" font-size="10.00">max30101_get_spo2</text>
</a>
</g>
</g>
<!-- Node1&#45;&gt;Node5 -->
<g id="edge4_Node000001_Node000005" class="edge">
<title>Node1&#45;&gt;Node5</title>
<g id="a_edge4_Node000001_Node000005"><a xlink:title=" ">
<path fill="none" stroke="#63b8ff" d="M55.58,-56.59C69.93,-48.29 91.03,-36.81 110.5,-29 115.06,-27.17 119.86,-25.44 124.7,-23.82"/>
<polygon fill="#63b8ff" stroke="#63b8ff" points="125.39,-27.28 133.87,-20.92 123.28,-20.6 125.39,-27.28"/>
</a>
</g>
</g>
</g>
</svg>
