<?xml version="1.0" encoding="UTF-8" standalone="no"?>
<!DOCTYPE svg PUBLIC "-//W3C//DTD SVG 1.1//EN"
 "http://www.w3.org/Graphics/SVG/1.1/DTD/svg11.dtd">
<!-- Generated by graphviz version 14.1.2 (20260124.0452)
 -->
<!-- Title: ble_mesh_init Pages: 1 -->
<!--zoomable 206 -->

<svg id="main" version="1.1" xmlns="http://www.w3.org/2000/svg" xmlns:xlink="http://www.w3.org/1999/xlink" xml:space="preserve" onload="init(evt)">

<style type="text/css"><![CDATA[
.node, .edge {opacity: 0.7;}
.node.selected, .edge.selected {opacity: 1;}
.edge:hover path { stroke: red; }
.edge:hover polygon { stroke: red; fill: red; }
]]></style>

<defs>
  <circle id="rim" cx="0" cy="0" r="7"/>
  <circle id="rim2" cx="0" cy="0" r="3.5"/>
  <g id="zoomPlus">
    <use xlink:href="#rim" fill="#404040"><set attributeName="fill" to="#808080" begin="zoomplus.mouseover" end="zoomplus.mouseout"/></use>
    <path d="M-4,0h8M0,-4v8" fill="none" stroke="white" stroke-width="1.5" pointer-events="none"/>
  </g>
  <g id="zoomMin">
    <use xlink:href="#rim" fill="#404040"><set attributeName="fill" to="#808080" begin="zoomminus.mouseover" end="zoomminus.mouseout"/></use>
    <path d="M-4,0h8" fill="none" stroke="white" stroke-width="1.5" pointer-events="none"/>
  </g>
  <g id="arrowUp" transform="translate(30 24)">
    <use xlink:href="#rim"/>
    <path pointer-events="none" fill="none" stroke="white" stroke-width="1.5" d="M0,-3.0v7 M-2.5,-0.5L0,-3.0L2.5,-0.5"/>
  </g>
  <g id="arrowRight" transform="rotate(90) translate(36 -43)">
    <use xlink:href="#rim"/>
    <path pointer-events="none" fill="none" stroke="white" stroke-width="1.5" d="M0,-3.0v7 M-2.5,-0.5L0,-3.0L2.5,-0.5"/>
  </g>
  <g id="arrowDown" transform="rotate(180) translate(-30 -48)">
    <use xlink:href="#rim"/>
    <path pointer-events="none" fill="none" stroke="white" stroke-width="1.5" d="M0,-3.0v7 M-2.5,-0.5L0,-3.0L2.5,-0.5"/>
  </g>
  <g id="arrowLeft" transform="rotate(270) translate(-36 17)">
    <use xlink:href="#rim"/>
    <path pointer-events="none" fill="none" stroke="white" stroke-width="1.5" d="M0,-3.0v7 M-2.5,-0.5L0,-3.0L2.5,-0.5"/>
  </g>
  <g id="resetDef">
    <use xlink:href="#rim2" fill="#404040"><set attributeName="fill" to="#808080" begin="reset.mouseover" end="reset.mouseout"/></use>
  </g>
</defs>
<script type="application/ecmascript">
var viewWidth = 579;
var viewHeight = 206;
var sectionId = 'dynsection-2';
</script>
<script type="application/ecmascript" xlink:href="svg.min.js"/>
<svg id="graph" class="graph">
<g id="viewport">
<title>ble_mesh_init</title>
<!-- Node1 -->
<g id="Node000001" class="node">
<title>Node1</title>
<g id="a_Node000001"><a xlink:title="Initialize BLE Mesh stack and provisioning bearers.">
<polygon fill="#999999" stroke="#666666" points="76,-134 0,-134 0,-114 76,-114 76,-134"/>
<text xml:space="preserve" text-anchor="middle" x="38" y="-120.5" font-family="Helvetica,sans-Serif" font-size="10.00">ble_mesh_init</text>
</a>
</g>
</g>
<!-- Node2 -->
<g id="Node000002" class="node">
<title>Node2</title>
<g id="a_Node000002"><a xlink:href="board_8c.html#a1e260d8ae55d49d43ddf309ad368df26" target="_top" xlink:title="Set LED GPIO level and track previous state.">
<polygon fill="white" stroke="#666666" points="555.25,-187 452.25,-187 452.25,-167 555.25,-167 555.25,-187"/>
<text xml:space="preserve" text-anchor="middle" x="503.75" y="-173.5" font-family="Helvetica,sans-Serif" font-size="10.00">board_led_operation</text>
</a>
</g>
</g>
<!-- Node1&#45;&gt;Node2 -->
<g id="edge1_Node000001_Node000002" class="edge">
<title>Node1&#45;&gt;Node2</title>
<g id="a_edge1_Node000001_Node000002"><a xlink:title=" ">
<path fill="none" stroke="#63b8ff" d="M49.74,-134.49C63.07,-146.7 87.08,-166.18 112,-174 223.67,-209.05 362.28,-198.22 440.81,-187.43"/>
<polygon fill="#63b8ff" stroke="#63b8ff" points="441.05,-190.93 450.45,-186.06 440.06,-184 441.05,-190.93"/>
</a>
</g>
</g>
<!-- Node3 -->
<g id="Node000003" class="node">
<title>Node3</title>
<g id="a_Node000003"><a xlink:href="main_2main_8c.html#ae77b1dd1df5756e1fb940ccd59ca4b5e" target="_top" xlink:title="Configuration server callback for model state changes.">
<polygon fill="white" stroke="#666666" points="264.12,-165 132.62,-165 132.62,-133 264.12,-133 264.12,-165"/>
<text xml:space="preserve" text-anchor="start" x="140.62" y="-151.5" font-family="Helvetica,sans-Serif" font-size="10.00">example_ble_mesh_config</text>
<text xml:space="preserve" text-anchor="middle" x="198.38" y="-139.5" font-family="Helvetica,sans-Serif" font-size="10.00">_server_cb</text>
</a>
</g>
</g>
<!-- Node1&#45;&gt;Node3 -->
<g id="edge2_Node000001_Node000003" class="edge">
<title>Node1&#45;&gt;Node3</title>
<g id="a_edge2_Node000001_Node000003"><a xlink:title=" ">
<path fill="none" stroke="#63b8ff" d="M76.13,-129.86C89.6,-131.99 105.34,-134.47 120.95,-136.94"/>
<polygon fill="#63b8ff" stroke="#63b8ff" points="120.33,-140.38 130.76,-138.48 121.42,-133.47 120.33,-140.38"/>
</a>
</g>
</g>
<!-- Node4 -->
<g id="Node000004" class="node">
<title>Node4</title>
<g id="a_Node000004"><a xlink:href="main_2main_8c.html#aac29b4973bbff9d751ca5720584e7044" target="_top" xlink:title="Vendor model callback for send/receive events.">
<polygon fill="white" stroke="#666666" points="267.12,-115 129.62,-115 129.62,-83 267.12,-83 267.12,-115"/>
<text xml:space="preserve" text-anchor="start" x="137.62" y="-101.5" font-family="Helvetica,sans-Serif" font-size="10.00">example_ble_mesh_custom</text>
<text xml:space="preserve" text-anchor="middle" x="198.38" y="-89.5" font-family="Helvetica,sans-Serif" font-size="10.00">_model_cb</text>
</a>
</g>
</g>
<!-- Node1&#45;&gt;Node4 -->
<g id="edge3_Node000001_Node000004" class="edge">
<title>Node1&#45;&gt;Node4</title>
<g id="a_edge3_Node000001_Node000004"><a xlink:title=" ">
<path fill="none" stroke="#63b8ff" d="M76.13,-118.14C88.81,-116.14 103.51,-113.82 118.21,-111.5"/>
<polygon fill="#63b8ff" stroke="#63b8ff" points="118.59,-114.98 127.93,-109.96 117.5,-108.06 118.59,-114.98"/>
</a>
</g>
</g>
<!-- Node5 -->
<g id="Node000005" class="node">
<title>Node5</title>
<g id="a_Node000005"><a xlink:href="main_2main_8c.html#ae851df26bfca3d7270354d8f3f7a2a3a" target="_top" xlink:title="BLE Mesh provisioning callback for node events.">
<polygon fill="white" stroke="#666666" points="284.75,-65 112,-65 112,-45 284.75,-45 284.75,-65"/>
<text xml:space="preserve" text-anchor="middle" x="198.38" y="-51.5" font-family="Helvetica,sans-Serif" font-size="10.00">example_ble_mesh_provisioning_cb</text>
</a>
</g>
</g>
<!-- Node1&#45;&gt;Node5 -->
<g id="edge4_Node000001_Node000005" class="edge">
<title>Node1&#45;&gt;Node5</title>
<g id="a_edge4_Node000001_Node000005"><a xlink:title=" ">
<path fill="none" stroke="#63b8ff" d="M51.05,-113.57C64.86,-102.17 88.61,-84.16 112,-74 116.51,-72.04 121.24,-70.27 126.07,-68.68"/>
<polygon fill="#63b8ff" stroke="#63b8ff" points="126.73,-72.14 135.3,-65.9 124.72,-65.44 126.73,-72.14"/>
</a>
</g>
</g>
<!-- Node6 -->
<g id="Node000006" class="node">
<title>Node6</title>
<g id="a_Node000006"><a xlink:href="main_2main_8c.html#a07a0bb87283a1d544425b2c64bc45bda" target="_top" xlink:title="Handle provisioning completion and turn off status LED.">
<polygon fill="white" stroke="#666666" points="400.5,-134 320.75,-134 320.75,-114 400.5,-114 400.5,-134"/>
<text xml:space="preserve" text-anchor="middle" x="360.62" y="-120.5" font-family="Helvetica,sans-Serif" font-size="10.00">prov_complete</text>
</a>
</g>
</g>
<!-- Node5&#45;&gt;Node6 -->
<g id="edge5_Node000005_Node000006" class="edge">
<title>Node5&#45;&gt;Node6</title>
<g id="a_edge5_Node000005_Node000006"><a xlink:title=" ">
<path fill="none" stroke="#63b8ff" d="M259.51,-65.43C268.14,-67.77 276.79,-70.6 284.75,-74 304.14,-82.29 323.88,-95.72 338.22,-106.58"/>
<polygon fill="#63b8ff" stroke="#63b8ff" points="335.98,-109.27 346.02,-112.66 340.29,-103.75 335.98,-109.27"/>
</a>
</g>
</g>
<!-- Node7 -->
<g id="Node000007" class="node">
<title>Node7</title>
<g id="a_Node000007"><a xlink:href="main_2main_8c.html#a51c85c785ff418595fca6cb6bdeadaec" target="_top" xlink:title="Sensor data publication callback.">
<polygon fill="white" stroke="#666666" points="397.88,-65 323.38,-65 323.38,-45 397.88,-45 397.88,-65"/>
<text xml:space="preserve" text-anchor="middle" x="360.62" y="-51.5" font-family="Helvetica,sans-Serif" font-size="10.00">pub_timer_cb</text>
</a>
</g>
</g>
<!-- Node5&#45;&gt;Node7 -->
<g id="edge7_Node000005_Node000007" class="edge">
<title>Node5&#45;&gt;Node7</title>
<g id="a_edge7_Node000005_Node000007"><a xlink:title=" ">
<path fill="none" stroke="#63b8ff" d="M285.13,-55C294.23,-55 303.24,-55 311.68,-55"/>
<polygon fill="#63b8ff" stroke="#63b8ff" points="311.66,-58.5 321.66,-55 311.66,-51.5 311.66,-58.5"/>
</a>
</g>
</g>
<!-- Node6&#45;&gt;Node2 -->
<g id="edge6_Node000006_Node000002" class="edge">
<title>Node6&#45;&gt;Node2</title>
<g id="a_edge6_Node000006_Node000002"><a xlink:title=" ">
<path fill="none" stroke="#63b8ff" d="M389.51,-134.47C410.87,-142.49 440.58,-153.65 464.21,-162.53"/>
<polygon fill="#63b8ff" stroke="#63b8ff" points="462.92,-165.78 473.51,-166.02 465.38,-159.23 462.92,-165.78"/>
</a>
</g>
</g>
<!-- Node8 -->
<g id="Node000008" class="node">
<title>Node8</title>
<g id="a_Node000008"><a xlink:href="aht20_8h.html#ac6edc10e16108823ec8740e5e65558eb" target="_top" xlink:title="Stub read when AHT20 is disabled.">
<polygon fill="white" stroke="#666666" points="548.88,-134 458.62,-134 458.62,-114 548.88,-114 548.88,-134"/>
<text xml:space="preserve" text-anchor="middle" x="503.75" y="-120.5" font-family="Helvetica,sans-Serif" font-size="10.00">aht20_read_x100</text>
</a>
</g>
</g>
<!-- Node7&#45;&gt;Node8 -->
<g id="edge8_Node000007_Node000008" class="edge">
<title>Node7&#45;&gt;Node8</title>
<g id="a_edge8_Node000007_Node000008"><a xlink:title=" ">
<path fill="none" stroke="#63b8ff" d="M374.41,-65.35C388.76,-76.52 413.1,-94.15 436.5,-105 440.25,-106.74 444.19,-108.35 448.21,-109.85"/>
<polygon fill="#63b8ff" stroke="#63b8ff" points="446.9,-113.1 457.5,-113.02 449.17,-106.47 446.9,-113.1"/>
</a>
</g>
</g>
<!-- Node9 -->
<g id="Node000009" class="node">
<title>Node9</title>
<g id="a_Node000009"><a xlink:href="max30101_8h.html#a098f481c6ba110c617a896ec43f02cd4" target="_top" xlink:title="Stub heart rate getter when MAX30101 is disabled.">
<polygon fill="white" stroke="#666666" points="568,-96 439.5,-96 439.5,-76 568,-76 568,-96"/>
<text xml:space="preserve" text-anchor="middle" x="503.75" y="-82.5" font-family="Helvetica,sans-Serif" font-size="10.00">max30101_get_heart_rate</text>
</a>
</g>
</g>
<!-- Node7&#45;&gt;Node9 -->
<g id="edge9_Node000007_Node000009" class="edge">
<title>Node7&#45;&gt;Node9</title>
<g id="a_edge9_Node000007_Node000009"><a xlink:title=" ">
<path fill="none" stroke="#63b8ff" d="M398.34,-63.06C412.27,-66.12 428.51,-69.69 443.97,-73.09"/>
<polygon fill="#63b8ff" stroke="#63b8ff" points="443.05,-76.47 453.57,-75.2 444.55,-69.63 443.05,-76.47"/>
</a>
</g>
</g>
<!-- Node10 -->
<g id="Node000010" class="node">
<title>Node10</title>
<g id="a_Node000010"><a xlink:href="max30101_8h.html#ae8038b9b65d4df2dc274ff534c83a974" target="_top" xlink:title="Stub raw value getter when MAX30101 is disabled.">
<polygon fill="white" stroke="#666666" points="571,-58 436.5,-58 436.5,-38 571,-38 571,-58"/>
<text xml:space="preserve" text-anchor="middle" x="503.75" y="-44.5" font-family="Helvetica,sans-Serif" font-size="10.00">max30101_get_raw_values</text>
</a>
</g>
</g>
<!-- Node7&#45;&gt;Node10 -->
<g id="edge10_Node000007_Node000010" class="edge">
<title>Node7&#45;&gt;Node10</title>
<g id="a_edge10_Node000007_Node000010"><a xlink:title=" ">
<path fill="none" stroke="#63b8ff" d="M398.34,-53.18C406.58,-52.77 415.63,-52.32 424.85,-51.86"/>
<polygon fill="#63b8ff" stroke="#63b8ff" points="424.82,-55.37 434.63,-51.38 424.47,-48.38 424.82,-55.37"/>
</a>
</g>
</g>
<!-- Node11 -->
<g id="Node000011" class="node">
<title>Node11</title>
<g id="a_Node000011"><a xlink:href="max30101_8h.html#a654f1aab2d5deafacaa1b6c63ec94628" target="_top" xlink:title="Stub SpO2 getter when MAX30101 is disabled.">
<polygon fill="white" stroke="#666666" points="556.75,-20 450.75,-20 450.75,0 556.75,0 556.75,-20"/>
<text xml:space="preserve" text-anchor="middle" x="503.75" y="-6.5" font-family="Helvetica,sans-Serif" font-size="10.00">max30101_get_spo2</text>
</a>
</g>
</g>
<!-- Node7&#45;&gt;Node11 -->
<g id="edge11_Node000007_Node000011" class="edge">
<title>Node7&#45;&gt;Node11</title>
<g id="a_edge11_Node000007_Node000011"><a xlink:title=" ">
<path fill="none" stroke="#63b8ff" d="M390.66,-44.5C404.48,-39.61 421.28,-33.82 436.5,-29 442.2,-27.19 448.21,-25.37 454.17,-23.6"/>
<polygon fill="#63b8ff" stroke="#63b8ff" points="454.73,-27.08 463.35,-20.92 452.77,-20.36 454.73,-27.08"/>
</a>
</g>
</g>
</g>
</svg>

<g id="navigator" transform="translate(0 0)" fill="#404254">
  <rect fill="#f2f5e9" fill-opacity="0.5" stroke="#606060" stroke-width=".5" x="0" y="0" width="60" height="60"/>
  <use id="zoomplus" xlink:href="#zoomPlus" x="17" y="9" onmousedown="handleZoom(evt,'in')"/>
  <use id="zoomminus" xlink:href="#zoomMin" x="42" y="9" onmousedown="handleZoom(evt,'out')"/>
  <use id="reset" xlink:href="#resetDef" x="30" y="36" onmousedown="handleReset()"/>
   <use id="arrowup" xlink:href="#arrowUp" x="0" y="0" onmousedown="handlePan(0,-1)"/>
  <use id="arrowright" xlink:href="#arrowRight" x="0" y="0" onmousedown="handlePan(1,0)"/>
  <use id="arrowdown" xlink:href="#arrowDown" x="0" y="0" onmousedown="handlePan(0,1)"/>
  <use id="arrowleft" xlink:href="#arrowLeft" x="0" y="0" onmousedown="handlePan(-1,0)"/>
</g>
<svg viewBox="0 0 15 15" width="100%" height="30px" preserveAspectRatio="xMaxYMin meet">
 <g id="arrow_out" transform="scale(0.3 0.3)">
  <a xlink:href="main_2main_8c_a12fbcc517c402c44fa29f9dad1d1092b_cgraph_org.svg" target="_base">
   <rect id="button" ry="5" rx="5" y="6" x="6" height="38" width="38"
        fill="#f2f5e9" fill-opacity="0.5" stroke="#606060" stroke-width="1.0"/>
   <path id="arrow"
     d="M 11.500037,31.436501 C 11.940474,20.09759 22.043105,11.32322 32.158766,21.979434 L 37.068811,17.246167 C 37.068811,17.246167 37.088388,32 37.088388,32 L 22.160133,31.978069 C 22.160133,31.978069 26.997745,27.140456 26.997745,27.140456 C 18.528582,18.264221 13.291696,25.230495 11.500037,31.436501 z"
     style="fill:#404040;"/>
  </a>
 </g>
</svg>

<style type='text/css'>
<![CDATA[
[data-mouse-over-selected='false'] { opacity: 0.7; }
[data-mouse-over-selected='true']  { opacity: 1.0; }
]]>
</style>
<script type="application/ecmascript"><![CDATA[
document.addEventListener('DOMContentLoaded', (event) => {
  highlightEdges();
  highlightAdjacentNodes();
});
]]></script>
</svg>
