<?xml version="1.0" encoding="UTF-8" standalone="no"?>
<!DOCTYPE svg PUBLIC "-//W3C//DTD SVG 1.1//EN"
 "http://www.w3.org/Graphics/SVG/1.1/DTD/svg11.dtd">
<!-- Generated by graphviz version 14.1.2 (20260124.0452)
 -->
<!-- Title: main/sensors/max30101.c Pages: 1 -->
<svg width="205pt" height="140pt"
 viewBox="0.00 0.00 205.00 140.00" xmlns="http://www.w3.org/2000/svg" xmlns:xlink="http://www.w3.org/1999/xlink">
<g id="graph0" class="graph" transform="scale(1 1) rotate(0) translate(4 136)">
<title>main/sensors/max30101.c</title>
<!-- Node1 -->
<g id="Node000001" class="node">
<title>Node1</title>
<g id="a_Node000001"><a xlink:title=" ">
<polygon fill="#999999" stroke="#666666" points="130.75,-132 0,-132 0,-112 130.75,-112 130.75,-132"/>
<text xml:space="preserve" text-anchor="middle" x="65.38" y="-118.5" font-family="Helvetica,sans-Serif" font-size="10.00">main/sensors/max30101.c</text>
</a>
</g>
</g>
<!-- Node2 -->
<g id="Node000002" class="node">
<title>Node2</title>
<g id="a_Node000002"><a xlink:href="config_8h.html" target="_top" xlink:title="Compile&#45;time configuration for different ESP32&#45;S3 sensor configurations.">
<polygon fill="white" stroke="#666666" points="55.62,-20 5.12,-20 5.12,0 55.62,0 55.62,-20"/>
<text xml:space="preserve" text-anchor="middle" x="30.38" y="-6.5" font-family="Helvetica,sans-Serif" font-size="10.00">config.h</text>
</a>
</g>
</g>
<!-- Node1&#45;&gt;Node2 -->
<g id="edge1_Node000001_Node000002" class="edge">
<title>Node1&#45;&gt;Node2</title>
<g id="a_edge1_Node000001_Node000002"><a xlink:title=" ">
<path fill="none" stroke="#63b8ff" d="M62.39,-111.62C56.76,-93.92 44.45,-55.24 36.84,-31.32"/>
<polygon fill="#63b8ff" stroke="#63b8ff" points="40.18,-30.27 33.81,-21.8 33.51,-32.39 40.18,-30.27"/>
</a>
</g>
</g>
<!-- Node3 -->
<g id="Node000003" class="node">
<title>Node3</title>
<g id="a_Node000003"><a xlink:href="max30101_8h.html" target="_top" xlink:title="MAX30101 heart rate and SpO2 sensor interface.">
<polygon fill="white" stroke="#666666" points="134,-76 64.75,-76 64.75,-56 134,-56 134,-76"/>
<text xml:space="preserve" text-anchor="middle" x="99.38" y="-62.5" font-family="Helvetica,sans-Serif" font-size="10.00">max30101.h</text>
</a>
</g>
</g>
<!-- Node1&#45;&gt;Node3 -->
<g id="edge2_Node000001_Node000003" class="edge">
<title>Node1&#45;&gt;Node3</title>
<g id="a_edge2_Node000001_Node000003"><a xlink:title=" ">
<path fill="none" stroke="#63b8ff" d="M71.3,-111.59C75.73,-104.55 81.95,-94.67 87.41,-86"/>
<polygon fill="#63b8ff" stroke="#63b8ff" points="90.35,-87.91 92.71,-77.58 84.42,-84.18 90.35,-87.91"/>
</a>
</g>
</g>
<!-- Node3&#45;&gt;Node2 -->
<g id="edge3_Node000003_Node000002" class="edge">
<title>Node3&#45;&gt;Node2</title>
<g id="a_edge3_Node000003_Node000002"><a xlink:title=" ">
<path fill="none" stroke="#63b8ff" d="M87.36,-55.59C77.36,-47.77 62.91,-36.46 51.07,-27.19"/>
<polygon fill="#63b8ff" stroke="#63b8ff" points="53.48,-24.64 43.45,-21.23 49.17,-30.15 53.48,-24.64"/>
</a>
</g>
</g>
<!-- Node4 -->
<g id="Node000004" class="node">
<title>Node4</title>
<g id="a_Node000004"><a xlink:title=" ">
<polygon fill="#e0e0e0" stroke="#999999" points="130.62,-20 74.12,-20 74.12,0 130.62,0 130.62,-20"/>
<text xml:space="preserve" text-anchor="middle" x="102.38" y="-6.5" font-family="Helvetica,sans-Serif" font-size="10.00">esp_err.h</text>
</a>
</g>
</g>
<!-- Node3&#45;&gt;Node4 -->
<g id="edge4_Node000003_Node000004" class="edge">
<title>Node3&#45;&gt;Node4</title>
<g id="a_edge4_Node000003_Node000004"><a xlink:title=" ">
<path fill="none" stroke="#63b8ff" d="M99.9,-55.59C100.26,-49.01 100.77,-39.96 101.22,-31.73"/>
<polygon fill="#63b8ff" stroke="#63b8ff" points="104.71,-31.99 101.77,-21.81 97.73,-31.6 104.71,-31.99"/>
</a>
</g>
</g>
<!-- Node5 -->
<g id="Node000005" class="node">
<title>Node5</title>
<g id="a_Node000005"><a xlink:title=" ">
<polygon fill="#e0e0e0" stroke="#999999" points="196.5,-20 148.25,-20 148.25,0 196.5,0 196.5,-20"/>
<text xml:space="preserve" text-anchor="middle" x="172.38" y="-6.5" font-family="Helvetica,sans-Serif" font-size="10.00">stdint.h</text>
</a>
</g>
</g>
<!-- Node3&#45;&gt;Node5 -->
<g id="edge5_Node000003_Node000005" class="edge">
<title>Node3&#45;&gt;Node5</title>
<g id="a_edge5_Node000003_Node000005"><a xlink:title=" ">
<path fill="none" stroke="#63b8ff" d="M112.09,-55.59C122.77,-47.7 138.25,-36.24 150.86,-26.92"/>
<polygon fill="#63b8ff" stroke="#63b8ff" points="152.63,-29.96 158.59,-21.2 148.47,-24.33 152.63,-29.96"/>
</a>
</g>
</g>
</g>
</svg>
